<?xml version="1.0" standalone="no"?>
<!DOCTYPE svg PUBLIC "-//W3C//DTD SVG 20010904//EN"
 "http://www.w3.org/TR/2001/REC-SVG-20010904/DTD/svg10.dtd">
<svg version="1.0" xmlns="http://www.w3.org/2000/svg"
 width="700.000000pt" height="700.000000pt" viewBox="0 0 700.000000 700.000000"
 preserveAspectRatio="xMidYMid meet">
<metadata>
Created by potrace 1.14, written by Peter Selinger 2001-2017
</metadata>
<g transform="translate(0.000000,700.000000) scale(0.100000,-0.100000)"
fill="#000000" stroke="none">
<path d="M2030 6871 c0 -5 3 -11 8 -13 25 -11 394 -458 378 -458 -3 0 -35 18
-71 40 -36 22 -70 40 -76 40 -25 0 21 -80 129 -229 l54 -74 -38 23 c-22 13
-54 32 -71 42 -21 12 -33 15 -33 8 0 -6 16 -73 35 -147 45 -175 45 -195 -1
-118 -143 239 -366 389 -650 439 -121 22 -433 11 -460 -16 -2 -3 36 -10 84
-16 69 -9 241 -47 352 -78 8 -2 36 -9 63 -16 26 -6 47 -15 47 -18 0 -4 -28 -7
-62 -7 -92 0 -238 -5 -238 -9 0 -1 35 -22 78 -46 96 -55 186 -91 288 -117 43
-11 90 -24 104 -30 23 -9 21 -10 -20 -11 -50 -2 -98 -8 -119 -16 -10 -3 -4
-12 21 -29 59 -40 138 -72 226 -90 85 -19 92 -22 51 -30 -23 -5 -79 -25 -88
-32 -3 -2 4 -10 15 -18 22 -17 7 -19 -31 -5 -14 5 -36 12 -48 14 -12 3 -47 10
-77 16 -114 23 -139 25 -275 24 -111 0 -157 -5 -222 -22 -153 -41 -261 -101
-361 -201 -57 -57 -152 -193 -152 -217 0 -8 27 4 70 31 71 46 343 191 415 221
l40 16 -50 -43 c-76 -66 -185 -172 -182 -176 7 -6 124 20 197 44 41 14 122 47
180 73 57 27 106 48 107 46 2 -2 -22 -30 -53 -62 -52 -55 -55 -59 -33 -62 38
-6 149 28 244 75 58 29 84 39 74 27 -8 -11 -25 -36 -37 -56 l-21 -38 38 0 c46
0 131 24 193 56 26 13 50 24 52 24 3 0 -15 -19 -39 -41 -25 -23 -43 -44 -40
-47 3 -3 21 -5 40 -4 19 1 37 -3 40 -8 3 -6 -1 -10 -11 -10 -28 0 -136 -52
-189 -91 -153 -112 -268 -322 -290 -531 -3 -29 -8 -63 -11 -75 -7 -34 1 -28
31 22 14 25 39 60 54 78 17 19 41 74 61 137 l34 105 8 -80 c10 -110 13 -115
44 -74 29 37 97 178 108 222 7 29 27 39 20 10 -6 -29 -11 -103 -7 -103 3 0 24
13 48 30 50 34 118 108 149 162 11 21 23 38 27 38 3 0 3 -28 1 -61 l-4 -62 33
24 c57 41 97 59 138 63 51 5 55 -1 26 -30 -13 -13 -28 -30 -32 -37 -4 -8 -46
-39 -93 -70 -423 -280 -748 -701 -913 -1182 -43 -124 -81 -284 -104 -435 -18
-124 -24 -457 -10 -561 l8 -57 62 -6 c163 -19 434 0 652 45 266 56 650 181
900 294 17 7 59 25 95 40 70 29 402 193 497 246 379 209 671 402 988 654 77
61 147 118 155 126 9 8 45 39 80 69 101 86 193 173 354 335 l148 150 -66 61
c-201 188 -495 368 -766 467 -97 36 -295 91 -366 101 -22 4 -50 8 -63 11 -12
2 -53 33 -90 67 -209 198 -470 288 -732 255 -31 -4 -72 -12 -90 -17 -41 -12
-42 -12 -35 -1 4 5 -12 12 -35 16 -51 9 -45 15 22 22 64 6 150 34 152 48 0 6
-17 20 -39 32 l-39 23 45 1 c91 1 127 6 183 24 31 10 57 21 57 26 0 5 -28 17
-62 28 -35 11 -56 20 -48 21 8 1 24 3 35 5 11 2 56 6 100 9 109 8 265 47 265
67 0 3 -19 10 -42 14 -24 4 -47 9 -53 11 -5 2 -41 9 -80 18 -38 8 -65 15 -60
16 41 7 136 12 292 13 178 1 181 2 152 19 -161 98 -399 138 -564 95 -199 -52
-347 -182 -494 -437 l-32 -55 7 40 c69 401 -70 691 -416 865 -62 31 -241 100
-260 100 -6 0 -10 -4 -10 -9z"/>
<path d="M6551 6428 c-68 -33 -229 -199 -333 -344 l-37 -50 -101 -1 c-55 -1
-220 -2 -367 -2 l-268 -1 -58 -87 c-32 -47 -56 -87 -55 -88 2 -2 93 -42 203
-90 110 -48 223 -97 250 -109 28 -13 65 -28 83 -35 17 -8 32 -16 32 -20 0 -4
-13 -28 -30 -54 -16 -26 -30 -49 -30 -51 0 -1 -31 -54 -68 -117 -38 -63 -71
-122 -75 -132 -7 -20 -12 -20 -315 -2 l-72 4 -27 -40 c-14 -22 -24 -41 -22
-43 6 -7 262 -122 287 -130 12 -4 22 -10 22 -14 0 -27 -218 -271 -425 -477
-176 -176 -211 -209 -330 -310 -38 -33 -72 -62 -75 -65 -3 -3 -30 -25 -60 -50
-30 -25 -57 -47 -60 -51 -10 -12 -259 -199 -360 -271 -175 -123 -447 -294
-660 -412 -89 -50 -482 -247 -550 -275 -30 -13 -78 -34 -107 -47 -28 -13 -54
-24 -57 -24 -4 0 -25 -9 -49 -19 -125 -56 -496 -182 -607 -206 -8 -2 -62 -16
-120 -30 -237 -60 -378 -78 -615 -79 -121 -1 -240 2 -265 6 -285 47 -475 180
-540 378 -36 108 -37 209 -5 380 21 111 148 382 253 539 73 108 105 154 112
161 3 3 21 25 40 50 66 87 206 246 317 360 61 63 115 119 120 125 7 8 -51 -38
-122 -97 -11 -9 -40 -33 -65 -53 -151 -124 -252 -217 -425 -390 -179 -179
-246 -252 -369 -405 -270 -336 -426 -620 -491 -895 -32 -133 -30 -308 4 -404
55 -157 171 -275 337 -344 164 -68 284 -86 544 -82 227 3 244 5 444 38 l139
24 26 -45 c37 -62 159 -232 204 -283 21 -24 80 -86 130 -137 l92 -93 45 6
c292 44 667 206 839 362 l44 41 37 -47 c183 -231 492 -331 805 -261 75 17 184
74 241 128 50 46 114 131 114 151 0 27 25 18 73 -25 106 -96 263 -181 432
-233 153 -47 250 -54 371 -26 145 33 276 99 372 188 34 33 40 47 20 47 -7 0
-69 17 -138 38 l-125 38 -39 -22 c-41 -23 -147 -59 -206 -70 -69 -12 -200 -11
-281 3 -108 19 -126 29 -53 32 78 2 174 37 264 96 76 49 226 193 257 245 l16
29 61 -56 c70 -63 194 -147 282 -191 l60 -30 34 51 c54 82 153 282 199 399 49
126 102 328 127 483 19 117 26 476 12 605 -38 335 -147 654 -322 943 -22 37
-46 77 -52 87 -6 11 -18 28 -27 38 -16 17 -14 22 33 81 28 34 85 108 127 164
42 56 78 104 80 107 5 5 40 -38 99 -122 l41 -58 28 41 c24 37 26 48 21 98 -3
31 -8 67 -11 81 -3 14 -7 47 -11 75 -3 27 -7 52 -10 56 -3 6 90 134 120 165 6
6 40 49 76 97 36 47 67 86 70 87 3 0 32 -82 65 -182 32 -101 62 -187 65 -191
4 -4 32 30 63 76 61 93 58 77 82 387 3 36 7 85 10 110 2 25 7 83 10 130 6 80
10 90 60 175 139 235 205 409 176 464 -14 26 -24 26 -80 -1z m-3059 -4172
c135 -96 176 -116 246 -120 81 -3 189 34 244 87 44 41 44 41 116 4 37 -19 99
-45 137 -57 78 -24 215 -34 263 -20 40 11 41 5 2 -15 -71 -37 -200 -48 -328
-29 -82 12 -89 12 -121 -7 -18 -11 -72 -31 -118 -44 -177 -51 -353 -23 -492
80 -28 20 -52 31 -57 26 -23 -23 -170 -48 -282 -49 -93 -1 -110 1 -82 9 53 15
143 51 160 64 8 6 26 16 40 23 14 7 57 37 95 67 39 29 71 54 72 54 1 1 48 -32
105 -73z"/>
<path d="M6389 3625 c-28 -15 -45 -45 -55 -102 -16 -89 -59 -119 -104 -71 -27
29 -29 108 -2 108 23 0 42 19 36 35 -4 8 -17 10 -45 5 -22 -4 -42 -10 -45 -13
-3 -3 -6 -30 -6 -59 -1 -94 47 -150 122 -142 49 6 70 32 87 105 16 72 35 99
68 99 39 0 65 -31 71 -83 6 -47 6 -47 -30 -62 -25 -11 -34 -20 -29 -30 4 -12
15 -14 46 -9 23 3 45 8 49 10 13 8 9 112 -6 147 -7 18 -22 40 -34 50 -25 23
-90 29 -123 12z"/>
<path d="M6495 3312 c-3 -8 3 -16 15 -19 11 -3 21 -8 21 -12 2 -10 7 -131 5
-132 0 0 -67 -3 -149 -5 -135 -5 -148 -4 -155 13 -4 10 -13 19 -19 21 -9 1
-13 -16 -13 -63 0 -53 3 -65 16 -65 9 0 18 9 21 20 5 18 14 20 112 21 58 1
122 2 141 3 44 3 60 -2 60 -20 0 -8 8 -14 18 -14 16 0 17 9 15 73 -1 39 -2 99
-2 132 l-1 61 -40 0 c-25 0 -41 -5 -45 -14z"/>
<path d="M6199 2988 c-1 -7 -2 -24 -4 -38 -1 -14 -5 -61 -9 -105 -4 -44 -9
-88 -12 -97 -4 -13 0 -18 15 -18 13 0 21 6 21 16 0 14 10 16 83 10 220 -17
235 -20 233 -42 0 -9 7 -18 17 -19 14 -3 17 5 18 38 0 23 2 50 4 59 2 9 6 53
10 97 l7 81 -46 0 c-34 0 -46 -4 -46 -15 0 -8 11 -17 24 -21 21 -5 23 -10 20
-42 -2 -20 -6 -50 -8 -67 -3 -30 -3 -30 -65 -29 -34 1 -64 3 -66 5 -1 2 0 34
4 72 6 60 5 67 -10 67 -24 0 -27 -8 -30 -68 -1 -28 -5 -55 -8 -60 -3 -4 -33
-6 -66 -3 l-60 6 4 40 c2 22 4 51 6 65 2 14 4 28 4 33 1 4 12 7 26 7 17 0 25
5 25 18 0 15 -9 19 -45 21 -31 1 -45 -2 -46 -11z"/>
<path d="M6171 2677 c-19 -50 -25 -107 -11 -107 7 0 18 7 24 15 9 13 29 3 129
-67 130 -92 130 -89 14 -102 -30 -4 -63 -8 -73 -10 -100 -18 -114 -18 -114 3
0 38 -29 23 -40 -21 -6 -24 -13 -51 -16 -60 -6 -22 31 -26 39 -5 4 11 68 25
197 42 14 2 41 7 60 10 42 8 68 12 96 14 14 1 23 9 26 25 4 22 -12 37 -147
133 -84 59 -151 111 -149 114 2 3 -3 15 -11 25 -13 18 -14 18 -24 -9z"/>
<path d="M6390 2141 c0 -5 -83 -8 -189 -7 l-189 3 -11 -24 c-10 -22 -2 -33
124 -155 74 -72 134 -133 133 -137 -5 -47 20 -38 42 15 22 50 19 69 -9 55 -13
-8 -24 -4 -45 16 -15 14 -25 30 -23 37 60 151 56 144 92 142 21 -1 40 -10 54
-26 11 -14 20 -22 21 -18 0 4 9 30 20 58 20 50 20 50 0 50 -11 0 -20 -4 -20
-9z m-236 -52 c48 -1 85 -5 84 -8 -2 -4 -12 -30 -22 -59 -11 -29 -25 -52 -30
-52 -6 1 -40 30 -76 66 -36 37 -60 64 -54 61 6 -3 50 -7 98 -8z"/>
<path d="M5891 1824 c-31 -13 -79 -73 -121 -149 -26 -48 -21 -67 11 -47 18 12
35 4 149 -64 116 -70 129 -80 124 -101 -5 -16 -2 -23 9 -23 21 0 80 102 64
112 -6 4 -19 1 -27 -7 -14 -13 -23 -11 -68 18 -48 30 -51 34 -39 52 8 10 25
20 38 22 42 7 93 11 131 12 29 1 41 7 59 32 18 25 19 33 8 40 -8 5 -20 3 -29
-6 -9 -8 -51 -18 -93 -23 l-77 -8 0 42 c0 75 -72 126 -139 98z m79 -64 c26
-26 25 -70 -1 -114 l-20 -34 -60 35 c-32 19 -59 39 -59 43 0 4 14 26 30 48 24
33 36 42 60 42 17 0 39 -9 50 -20z"/>
<path d="M2790 1584 c-98 -27 -91 -26 -280 -58 -177 -29 -235 -35 -369 -36
-122 0 -123 6 17 -98 326 -242 737 -401 1132 -440 95 -9 416 -9 495 0 204 25
441 84 620 156 120 49 475 246 463 257 -2 2 -35 6 -73 9 -64 6 -147 18 -201
30 -92 20 -299 112 -371 166 l-29 21 -84 -51 c-252 -150 -539 -182 -845 -95
-90 26 -270 106 -324 145 -35 24 -43 24 -151 -6z"/>
<path d="M5654 1513 c-37 -49 -71 -90 -74 -93 -3 -3 -15 -18 -27 -35 l-21 -29
27 -23 c14 -13 30 -23 34 -23 14 0 20 30 8 43 -8 10 -3 22 18 47 l28 33 99
-79 c54 -43 106 -85 115 -93 10 -8 15 -20 12 -27 -3 -8 -2 -21 1 -31 6 -15 8
-14 24 3 47 51 73 92 60 97 -7 2 -21 0 -30 -5 -14 -7 -42 11 -133 84 l-115 92
24 30 c17 22 31 30 49 28 38 -4 43 17 11 44 -16 13 -32 23 -35 24 -3 0 -37
-39 -75 -87z"/>
<path d="M5414 1234 c-47 -32 -164 -144 -164 -157 0 -5 13 -7 28 -4 25 5 38
-5 128 -101 54 -58 98 -111 98 -116 -1 -6 -3 -17 -5 -25 -9 -31 20 -17 82 42
90 84 119 129 119 184 0 151 -169 256 -286 177z m145 -38 c58 -31 98 -99 93
-159 -3 -29 -14 -48 -54 -88 l-51 -51 -102 109 -103 108 31 34 c60 63 123 79
186 47z"/>
<path d="M1936 1045 c-3 -8 1 -21 9 -28 12 -12 7 -24 -38 -83 -80 -107 -120
-144 -156 -144 -20 0 -35 7 -43 20 -15 24 -31 25 -48 6 -9 -12 -4 -20 31 -45
74 -54 126 -36 209 70 99 128 101 129 120 119 13 -7 20 -5 24 7 4 9 5 16 4 17
-2 1 -21 15 -43 32 -57 43 -62 46 -69 29z"/>
<path d="M5167 1026 c-41 -29 -45 -35 -32 -46 11 -10 18 -10 29 -1 12 10 27
-7 85 -91 38 -57 67 -104 63 -106 -4 -1 -81 23 -171 53 -168 56 -175 57 -218
23 -18 -15 -5 -36 20 -31 19 4 35 -15 105 -116 45 -66 82 -124 82 -130 0 -5
-5 -11 -12 -13 -7 -3 -8 -10 -2 -21 9 -15 15 -13 62 19 41 29 50 40 41 50 -8
10 -16 11 -29 4 -16 -9 -28 4 -89 92 -38 57 -68 104 -67 105 1 2 79 -22 173
-52 159 -51 211 -59 200 -31 -3 6 -46 71 -97 144 -68 99 -90 136 -81 145 15
15 14 37 -1 36 -7 0 -34 -15 -61 -33z"/>
<path d="M2110 789 c-115 -88 -137 -105 -162 -127 -10 -8 -27 -15 -39 -16 -39
-2 -30 -20 22 -50 l52 -29 -5 27 c-4 21 1 32 25 51 30 23 32 23 56 6 15 -10
35 -21 46 -25 11 -4 31 -15 43 -26 20 -16 23 -26 18 -57 -3 -21 -5 -39 -6 -39
0 -1 -7 -1 -16 0 -35 3 -23 -23 21 -47 39 -22 47 -24 52 -11 3 9 2 19 -4 23
-6 4 -3 45 8 111 10 58 20 123 23 145 3 22 9 59 12 82 5 35 3 43 -14 52 -12 6
-22 11 -24 11 -2 0 -50 -36 -108 -81z m88 -65 c-6 -43 -15 -83 -19 -88 -4 -4
-32 7 -62 25 l-55 33 63 48 c35 26 67 52 70 58 14 23 15 1 3 -76z"/>
<path d="M4705 747 c-11 -7 -20 -21 -19 -32 1 -11 4 -74 8 -140 4 -66 9 -140
11 -165 1 -24 -2 -52 -8 -62 -18 -28 -2 -30 47 -6 47 22 61 48 27 48 -15 0
-18 7 -17 42 l1 42 73 33 72 32 29 -26 c23 -22 27 -30 18 -45 -18 -28 -2 -30
48 -6 51 24 59 41 24 46 -11 2 -40 22 -64 45 -66 65 -206 191 -219 199 -6 3
-20 1 -31 -5z m154 -174 c1 -8 -97 -63 -114 -63 -1 0 -3 19 -4 43 -1 23 -3 66
-6 95 l-3 54 63 -59 c34 -32 63 -63 64 -70z"/>
<path d="M2423 735 c-3 -9 1 -21 10 -28 8 -7 18 -34 22 -62 3 -27 8 -57 10
-65 16 -62 14 -110 -7 -158 -17 -38 -28 -50 -42 -49 -41 4 -24 -21 31 -45 60
-26 87 -20 57 13 -13 14 -12 22 7 70 18 48 30 61 109 117 48 34 97 62 108 62
41 0 32 27 -16 45 -26 10 -53 22 -59 28 -9 6 -15 4 -19 -7 -4 -11 1 -22 12
-31 11 -8 14 -15 9 -15 -6 0 -21 -10 -35 -23 -14 -12 -41 -35 -62 -50 l-36
-28 -6 38 c-19 130 -19 136 -3 130 17 -6 44 18 29 26 -4 3 -32 15 -60 26 -46
18 -53 19 -59 6z"/>
<path d="M4391 626 c-70 -24 -99 -92 -66 -155 17 -35 54 -50 123 -50 63 -1 88
-12 94 -43 9 -54 -24 -87 -92 -93 -33 -3 -39 0 -44 21 -4 16 -14 24 -27 24
-16 0 -19 -4 -14 -22 18 -63 27 -78 49 -74 11 2 40 7 62 10 23 4 57 20 75 36
31 25 34 32 34 84 0 77 -22 98 -107 103 -81 5 -115 19 -120 48 -7 35 23 66 71
75 39 7 43 5 53 -16 11 -23 28 -31 40 -19 3 3 0 22 -7 43 -12 34 -17 37 -52
38 -21 1 -53 -4 -72 -10z"/>
<path d="M2771 573 c-13 -47 2 -68 27 -38 15 18 23 20 58 13 l41 -9 -35 -142
c-19 -78 -36 -143 -37 -145 -2 -2 -11 -5 -22 -6 -10 -2 -19 -9 -21 -17 -2 -10
14 -18 51 -27 29 -6 58 -12 65 -12 17 0 15 21 -5 35 -15 11 -15 17 1 81 10 38
20 83 23 99 3 17 9 38 14 47 5 9 9 26 9 37 0 11 4 23 10 26 15 9 92 -14 84
-26 -6 -10 13 -39 26 -39 14 0 30 81 17 85 -13 5 -289 75 -293 75 -2 0 -8 -17
-13 -37z"/>
<path d="M4010 529 c-79 -15 -90 -19 -90 -33 0 -8 10 -16 22 -18 20 -3 25 -16
50 -148 25 -128 27 -146 13 -156 -8 -6 -15 -18 -15 -26 0 -12 9 -13 58 -4 55
9 76 21 66 38 -3 4 -14 8 -24 8 -14 0 -21 12 -29 50 -14 67 -14 67 9 73 21 5
45 -11 128 -88 24 -22 48 -40 53 -39 5 1 21 2 35 3 33 1 29 33 -6 38 -13 2
-27 7 -30 12 -3 4 -28 28 -57 53 -51 45 -51 46 -27 56 35 17 58 78 45 122 -19
63 -82 82 -201 59z m139 -55 c20 -25 22 -58 6 -84 -7 -12 -65 -43 -65 -36 0 3
-11 1 -25 -4 -14 -5 -25 -8 -25 -6 0 8 -21 113 -26 128 -4 12 2 18 23 21 72
11 91 7 112 -19z"/>
<path d="M3198 496 c-75 -33 -114 -110 -105 -206 9 -99 66 -156 167 -167 62
-7 108 9 149 51 91 93 68 267 -42 317 -47 21 -128 24 -169 5z m158 -53 c68
-44 74 -174 12 -241 -48 -50 -138 -46 -192 8 -29 28 -31 36 -31 98 0 76 16
111 66 141 36 22 108 19 145 -6z"/>
<path d="M3816 501 c-65 -6 -69 -7 -53 -23 9 -9 22 -18 28 -20 17 -6 24 -211
9 -248 -11 -26 -61 -60 -90 -60 -7 0 -27 7 -46 16 -42 20 -52 50 -59 181 -5
95 -4 102 15 108 11 3 20 13 20 21 0 12 -13 15 -65 13 -56 -2 -65 -5 -65 -21
0 -11 7 -18 20 -18 18 0 20 -7 21 -62 2 -172 20 -228 87 -266 43 -24 142 -11
178 23 37 35 45 76 42 198 -3 109 -1 122 15 125 9 2 17 12 17 23 0 10 -1 18
-2 17 -2 -1 -34 -4 -72 -7z"/>
</g>
</svg>
