<svg xmlns="http://www.w3.org/2000/svg" xmlns:xlink="http://www.w3.org/1999/xlink" width="500" zoomAndPan="magnify" viewBox="0 0 375 374.999991" height="500" preserveAspectRatio="xMidYMid meet" version="1.0"><defs><g/><clipPath id="8a3ab7895d"><path d="M 76 125 L 314 125 L 314 324.757812 L 76 324.757812 Z M 76 125 " clip-rule="nonzero"/></clipPath><clipPath id="9c59e09ee7"><path d="M 46 6.007812 L 218 6.007812 L 218 215 L 46 215 Z M 46 6.007812 " clip-rule="nonzero"/></clipPath></defs><g clip-path="url(#8a3ab7895d)"><path fill="#51ade5" d="M 159.167969 261.847656 C 170.570312 260.347656 181.421875 250.164062 181.625 249.976562 C 181.601562 250.050781 181.984375 250.777344 192.238281 257.792969 C 204.550781 266.222656 215.734375 253.640625 215.734375 253.640625 C 232.5 264.078125 244.011719 259.140625 244.011719 259.140625 C 233.8125 265.765625 219.304688 261.386719 219.304688 261.386719 C 197.089844 273.910156 182.066406 258.921875 182.066406 258.921875 C 172.738281 263.375 159.167969 261.847656 159.167969 261.847656 Z M 76.125 251.992188 C 83.21875 267.5 93.402344 281.292969 105.882812 292.585938 C 141.71875 286.835938 155.5625 270.519531 155.5625 270.519531 C 155.5625 270.519531 165.945312 288.585938 190.492188 288.414062 C 215.03125 288.242188 220.449219 270.519531 220.449219 270.519531 C 220.449219 270.519531 229.191406 281.972656 251.847656 287.53125 C 266.402344 291.105469 283.472656 282.054688 288.453125 275.160156 L 288.460938 275.148438 C 279.753906 273.003906 273.636719 270.730469 273.636719 270.730469 C 256.167969 281.242188 237.796875 273.597656 237.796875 273.597656 C 256.222656 276.910156 271.542969 253.902344 271.542969 253.902344 C 271.542969 253.902344 278.195312 262.386719 292.960938 268.777344 C 305.9375 249.125 313.496094 225.570312 313.496094 200.25 C 313.496094 172.296875 304.285156 146.492188 288.734375 125.714844 C 286.609375 127.222656 284.144531 129.238281 281.027344 132.601562 C 255.582031 160.078125 219.21875 187.167969 190.839844 204.925781 C 152.023438 229.210938 111.296875 244.964844 76.125 251.992188 Z M 108.546875 294.925781 C 130.253906 313.476562 158.417969 324.679688 189.199219 324.679688 C 216.144531 324.679688 241.085938 316.09375 261.449219 301.507812 C 239.734375 302.03125 224.5625 289.667969 224.5625 289.667969 C 190.550781 314.085938 155.5625 288.585938 155.5625 288.585938 C 131.359375 295.347656 116.558594 295.722656 108.546875 294.925781 " fill-opacity="1" fill-rule="nonzero"/></g><path fill="#3871c1" d="M 190.839844 204.925781 C 219.21875 187.167969 255.582031 160.078125 281.027344 132.601562 C 284.144531 129.238281 286.609375 127.222656 288.734375 125.714844 C 289.328125 126.507812 289.910156 127.3125 290.484375 128.117188 C 275.363281 151.433594 246.089844 191.300781 204.648438 224.082031 C 167.898438 253.144531 130.042969 273.992188 97.859375 284.640625 C 89 275.035156 81.628906 264.03125 76.125 251.992188 C 111.296875 244.964844 152.023438 229.210938 190.839844 204.925781 " fill-opacity="1" fill-rule="nonzero"/><path fill="#f68712" d="M 276.4375 111.625 C 263.195312 126.097656 238.535156 150.109375 203.886719 171.648438 C 174.359375 189.996094 143.546875 203.800781 116.695312 211.15625 C 111.035156 212.703125 105.546875 213.96875 100.289062 214.925781 C 92.351562 216.375 84.933594 217.128906 78.191406 217.128906 C 73.617188 217.128906 69.5 216.777344 65.898438 216.101562 C 65.238281 210.914062 64.898438 205.621094 64.898438 200.25 C 64.898438 155.039062 88.988281 115.457031 125.019531 93.671875 C 136.109375 86.964844 148.335938 81.941406 161.335938 78.964844 C 161.40625 78.945312 161.472656 78.929688 161.539062 78.917969 C 164.921875 78.144531 168.355469 77.515625 171.832031 77.027344 C 172.316406 76.960938 172.800781 76.898438 173.285156 76.832031 C 176.722656 76.394531 180.207031 76.09375 183.730469 75.941406 C 183.953125 75.933594 184.179688 75.921875 184.40625 75.914062 C 186 75.851562 187.59375 75.824219 189.199219 75.824219 C 195.515625 75.824219 201.71875 76.292969 207.785156 77.207031 C 234.351562 81.195312 258.167969 93.601562 276.4375 111.625 " fill-opacity="1" fill-rule="nonzero"/><path fill="#2c3892" d="M 343.03125 59.902344 C 352.683594 45.09375 357.898438 31.941406 354.785156 29.820312 C 351.675781 27.699219 341.347656 37.355469 331.097656 51.75 L 291.710938 52.050781 L 285.40625 61.304688 L 316.28125 74.835938 C 312.308594 81.398438 308.191406 88.429688 304.585938 94.902344 L 284.457031 93.84375 L 281.4375 98.273438 L 298.660156 106.007812 C 298.355469 106.613281 267.304688 147.953125 210.921875 182.996094 C 134.664062 230.394531 57.890625 244.730469 39.421875 214.96875 C 26.621094 194.347656 45.183594 157.972656 83.160156 121.796875 C 22.40625 168.917969 -11.105469 221.777344 5.941406 249.246094 C 26.265625 281.988281 110.886719 266.464844 194.640625 214.0625 C 262.367188 171.6875 304.214844 110.128906 304.398438 109.925781 L 311.65625 119.996094 L 314.671875 115.566406 L 312.5625 100.351562 C 317.269531 94.628906 322.308594 88.226562 326.964844 82.128906 L 333.84375 103.15625 L 340.148438 93.902344 L 343.03125 59.902344 " fill-opacity="1" fill-rule="nonzero"/><g clip-path="url(#9c59e09ee7)"><path fill="#24265d" d="M 187.683594 78.59375 C 191.652344 82.015625 196.472656 84.265625 201.613281 85.257812 C 207.066406 86.308594 212.152344 87.960938 217.753906 90.625 C 217.753906 90.625 214.359375 84.199219 207.785156 77.207031 C 197.976562 66.765625 181.078125 55.074219 157.832031 61.652344 C 158.167969 61.433594 158.511719 61.21875 158.859375 61 C 157.183594 60.332031 155.238281 59.789062 153.039062 59.542969 C 153.039062 59.542969 154.199219 59.195312 156.105469 59.175781 C 159.707031 59.136719 163.25 58.253906 166.398438 56.507812 L 166.507812 56.449219 C 164.605469 55.582031 163.566406 54.128906 160.882812 53.832031 C 160.882812 53.832031 162.429688 53.367188 164.886719 53.480469 C 168.964844 53.664062 173.03125 52.90625 176.710938 51.136719 C 176.914062 51.035156 177.125 50.9375 177.328125 50.839844 C 175.269531 49.777344 172.636719 48.8125 169.488281 48.464844 C 169.488281 48.464844 171.660156 47.742188 174.695312 47.753906 C 180.726562 47.785156 186.699219 46.539062 192.296875 44.285156 C 192.53125 44.191406 192.753906 44.105469 192.960938 44.019531 C 188.050781 42.550781 181.457031 41.066406 178.273438 40.714844 C 178.273438 40.714844 193.953125 39.078125 205.53125 40.230469 C 205.53125 40.230469 166.449219 13.242188 144.390625 62.460938 C 148.054688 50.171875 149.125 28.773438 129.625 15.464844 C 120.472656 9.222656 107.914062 6.058594 107.914062 6.058594 C 111.382812 9.476562 128.472656 29.6875 129.992188 32.777344 C 129.863281 32.683594 125.660156 29.570312 120.726562 27.492188 C 120.800781 27.730469 120.878906 27.964844 120.953125 28.199219 C 122.289062 32.480469 130.367188 42.339844 131.292969 44.226562 C 131.292969 44.226562 127.894531 41.691406 123.597656 39.644531 C 124.601562 45.855469 127.480469 52.507812 127.738281 58.117188 C 108.066406 19.804688 65.09375 31.707031 65.09375 31.707031 C 79.226562 33.214844 97.570312 39.074219 97.570312 39.074219 C 93.675781 38.703125 85.425781 38.835938 79.1875 39.371094 C 79.394531 39.507812 79.617188 39.65625 79.847656 39.8125 C 86.019531 43.917969 92.890625 46.902344 100.148438 48.398438 C 103.753906 49.140625 106.148438 50.53125 106.148438 50.53125 C 102.296875 50.164062 98.90625 50.660156 96.179688 51.417969 L 96.503906 51.664062 C 100.628906 54.800781 105.472656 56.835938 110.582031 57.703125 C 113.4375 58.195312 115.101562 59.09375 115.101562 59.09375 C 111.820312 58.785156 110.214844 60.257812 107.726562 60.828125 C 107.839844 60.921875 107.945312 61.015625 108.054688 61.105469 C 108.949219 61.878906 109.890625 62.578125 110.878906 63.207031 C 59.476562 46.570312 46.09375 83.820312 46.09375 83.820312 C 57.644531 75.777344 75.113281 68.253906 75.457031 68.109375 C 72.269531 70.382812 66.121094 75.890625 61.757812 80.378906 C 61.796875 80.375 61.839844 80.367188 61.878906 80.363281 C 69.636719 79.332031 77.109375 76.832031 84.03125 73.175781 C 87.003906 71.605469 89.4375 71.140625 89.4375 71.140625 C 86.285156 73.390625 84.046875 75.988281 82.480469 78.347656 C 82.550781 78.34375 82.617188 78.339844 82.683594 78.332031 C 87.945312 78 93.019531 76.351562 97.53125 73.628906 C 99.90625 72.199219 101.691406 71.777344 101.800781 71.753906 C 99.121094 73.667969 98.875 75.835938 97.363281 77.890625 L 97.46875 77.890625 C 101.820312 77.867188 106.121094 76.800781 109.929688 74.6875 C 111.988281 73.542969 113.472656 73.199219 113.5625 73.175781 C 111.367188 74.746094 109.617188 76.484375 108.222656 78.191406 C 110.273438 78.296875 112.230469 78.429688 114.089844 78.582031 C 85.742188 85.5625 85.90625 118.46875 85.90625 118.46875 C 87.582031 114.945312 89.742188 111.902344 92.222656 109.246094 C 93.445312 102.792969 96.039062 97.738281 96.039062 97.738281 C 95.46875 100.980469 96.695312 108.4375 96.714844 108.417969 C 100.792969 104.835938 102.535156 98.335938 104.640625 93.332031 C 105.183594 92.042969 105.570312 91.292969 105.570312 91.292969 C 105.011719 94.449219 104.75 97.273438 104.6875 99.765625 C 104.714844 99.746094 104.75 99.730469 104.78125 99.714844 C 110.148438 96.714844 114.4375 92.089844 116.902344 86.449219 C 117.316406 85.503906 116.722656 91.480469 116.695312 94.140625 C 123.976562 87.429688 128.464844 89.320312 128.464844 89.320312 C 127.386719 90.605469 126.226562 92.050781 125.019531 93.671875 C 111.871094 111.3125 92.734375 149.230469 100.289062 214.925781 C 105.546875 213.96875 111.035156 212.703125 116.695312 211.15625 C 110.535156 185.433594 103.191406 132.523438 133.214844 93.234375 C 133.222656 93.523438 134.320312 91.46875 135.28125 90.421875 C 135.460938 90.570312 133.34375 99.476562 133.210938 103.1875 L 133.210938 103.277344 C 134.976562 102.054688 136.808594 101.90625 138.492188 99.691406 C 138.46875 99.785156 138.066406 101.277344 136.800781 103.246094 C 134.390625 106.984375 132.875 111.226562 132.460938 115.652344 C 132.453125 115.707031 132.449219 115.761719 132.445312 115.816406 C 134.46875 114.554688 136.710938 112.734375 138.683594 110.136719 C 138.65625 110.261719 138.191406 112.253906 136.832031 114.652344 C 133.574219 120.390625 131.285156 126.625 130.21875 133.136719 C 130.214844 133.175781 130.207031 133.207031 130.203125 133.242188 C 134.09375 129.675781 138.882812 124.632812 140.882812 122.003906 C 140.742188 122.304688 133.964844 136.832031 126.90625 146.363281 C 126.90625 146.363281 158.507812 132.402344 148.105469 92.496094 C 149.613281 98.492188 153.117188 103.785156 158.046875 107.5 C 158.085938 107.53125 158.128906 107.558594 158.164062 107.589844 C 158.714844 105.390625 158.925781 99.605469 159.027344 96.867188 C 159.027344 96.867188 165.386719 104.558594 167.960938 115.527344 L 168.035156 115.597656 C 168.546875 113.472656 169.214844 107.796875 169.3125 105.195312 C 169.3125 105.195312 174.011719 114.761719 181.734375 135.472656 C 181.734375 135.472656 191.238281 99.832031 163.882812 80.476562 C 167.511719 82.359375 171.5625 83.328125 175.679688 83.300781 L 175.796875 83.296875 C 175.183594 81.878906 171.859375 78.09375 171.355469 77.378906 C 171.355469 77.378906 183.421875 83.304688 188.355469 83.652344 L 188.496094 83.664062 C 187.75 81.976562 184.289062 76.625 184.0625 76.296875 C 184.0625 76.296875 186.449219 77.53125 187.683594 78.59375 " fill-opacity="1" fill-rule="nonzero"/></g><g fill="#000000" fill-opacity="1"><g transform="translate(87.76784, 331.407262)"><g><path d="M 0.71875 0.328125 C 1.519531 -0.566406 2.015625 -1.03125 2.203125 -1.0625 C 2.367188 -1.070312 2.53125 -1.019531 2.6875 -0.90625 C 2.84375 -0.78125 3 -0.613281 3.15625 -0.40625 C 3.34375 -0.144531 3.613281 0.125 3.96875 0.40625 L 3.9375 0.453125 C 6.039062 2.085938 8.109375 1.597656 10.140625 -1.015625 L 17.15625 -10.046875 C 16.363281 -10.878906 15.925781 -11.363281 15.84375 -11.5 C 15.65625 -11.707031 15.660156 -11.9375 15.859375 -12.1875 L 16.59375 -13.125 L 22.265625 -8.71875 L 21.53125 -7.78125 C 21.332031 -7.53125 21.097656 -7.476562 20.828125 -7.625 L 19.359375 -8.359375 L 12.390625 0.609375 C 10.222656 3.390625 7.84375 4.429688 5.25 3.734375 C 4.4375 3.515625 3.628906 3.09375 2.828125 2.46875 C 2.003906 1.832031 1.300781 1.117188 0.71875 0.328125 Z M 0.71875 0.328125 "/></g></g></g><g fill="#000000" fill-opacity="1"><g transform="translate(99.997427, 341.056523)"><g><path d="M 0.625 0.359375 L 1.21875 -0.640625 C 1.332031 -0.835938 1.507812 -0.898438 1.75 -0.828125 L 2.9375 -0.546875 L 18.8125 -12.734375 L 21.234375 -11.296875 L 18.15625 8.46875 L 18.96875 9.359375 C 19.144531 9.546875 19.175781 9.738281 19.0625 9.9375 L 18.46875 10.9375 L 13.390625 7.921875 L 13.984375 6.921875 C 14.109375 6.710938 14.296875 6.65625 14.546875 6.75 L 15.75 7.046875 L 16.453125 2.671875 L 8.828125 -1.84375 L 5.34375 0.890625 L 6.15625 1.78125 C 6.351562 1.957031 6.390625 2.148438 6.265625 2.359375 L 5.671875 3.359375 Z M 10.515625 -3.1875 L 16.828125 0.5625 L 18.234375 -7.8125 C 18.304688 -8.394531 18.457031 -9.050781 18.6875 -9.78125 C 18.03125 -9.15625 17.53125 -8.691406 17.1875 -8.390625 Z M 10.515625 -3.1875 "/></g></g></g><g fill="#000000" fill-opacity="1"><g transform="translate(121.847439, 353.64131)"><g><path d="M 7.78125 -17.6875 L 8.234375 -18.828125 L 14.609375 -16.25 L 14.15625 -15.109375 C 14.03125 -14.816406 13.832031 -14.695312 13.5625 -14.75 C 12.53125 -14.945312 11.984375 -15.0625 11.921875 -15.09375 L 13.03125 -7.5625 C 13.125 -6.6875 13.160156 -6.03125 13.140625 -5.59375 C 13.578125 -6.09375 14.0625 -6.550781 14.59375 -6.96875 L 20.625 -11.59375 C 20.539062 -11.632812 20.0625 -11.941406 19.1875 -12.515625 C 18.957031 -12.660156 18.898438 -12.878906 19.015625 -13.171875 L 19.46875 -14.28125 L 25.84375 -11.703125 L 25.375 -10.53125 C 25.257812 -10.257812 25.09375 -10.140625 24.875 -10.171875 C 24.800781 -10.179688 24.695312 -10.195312 24.5625 -10.21875 C 24.425781 -10.25 24.238281 -10.28125 24 -10.3125 C 23.769531 -10.351562 23.5625 -10.394531 23.375 -10.4375 L 13.671875 -3.265625 L 11.390625 2.390625 C 11.773438 2.679688 12.238281 2.988281 12.78125 3.3125 C 13.03125 3.476562 13.101562 3.695312 13 3.96875 L 12.53125 5.109375 L 10.59375 4.328125 L 8.015625 3.28125 L 6.09375 2.5 L 6.5625 1.359375 C 6.664062 1.097656 6.875 1 7.1875 1.0625 L 8.8125 1.34375 L 11.09375 -4.3125 L 9.15625 -16.1875 C 8.53125 -16.632812 8.128906 -16.910156 7.953125 -17.015625 C 7.710938 -17.171875 7.65625 -17.394531 7.78125 -17.6875 Z M 7.78125 -17.6875 "/></g></g></g><g fill="#000000" fill-opacity="1"><g transform="translate(143.32928, 362.048125)"><g><path d="M 4.53125 -15.375 L 5.65625 -19.765625 L 20.671875 -15.96875 L 21.640625 -15.71875 L 22.078125 -15.609375 L 20.953125 -11.21875 L 19.578125 -11.5625 C 19.285156 -11.632812 19.132812 -11.769531 19.125 -11.96875 C 19.125 -12.300781 19.191406 -12.929688 19.328125 -13.859375 L 14.65625 -15.046875 L 10.6875 0.578125 C 10.757812 0.597656 10.863281 0.644531 11 0.71875 C 11.832031 1.101562 12.28125 1.3125 12.34375 1.34375 C 12.507812 1.445312 12.554688 1.640625 12.484375 1.921875 L 12.1875 3.09375 L 5.453125 1.375 L 5.75 0.203125 C 5.832031 -0.117188 6.035156 -0.265625 6.359375 -0.234375 C 6.453125 -0.222656 6.675781 -0.210938 7.03125 -0.203125 C 7.382812 -0.191406 7.695312 -0.175781 7.96875 -0.15625 L 11.921875 -15.765625 L 7.21875 -16.953125 C 6.875 -15.984375 6.632812 -15.390625 6.5 -15.171875 C 6.394531 -15.003906 6.179688 -14.960938 5.859375 -15.046875 Z M 4.53125 -15.375 "/></g></g></g><g fill="#000000" fill-opacity="1"><g transform="translate(163.762151, 367.125469)"><g><path d="M 2.015625 -5.828125 C 1.648438 -7.171875 1.546875 -8.601562 1.703125 -10.125 C 1.867188 -11.644531 2.269531 -13.023438 2.90625 -14.265625 C 3.519531 -15.492188 4.320312 -16.523438 5.3125 -17.359375 C 6.300781 -18.191406 7.445312 -18.800781 8.75 -19.1875 C 10.0625 -19.5625 11.453125 -19.671875 12.921875 -19.515625 C 14.398438 -19.359375 15.75 -18.957031 16.96875 -18.3125 C 18.175781 -17.65625 19.160156 -16.832031 19.921875 -15.84375 C 20.722656 -14.8125 21.289062 -13.628906 21.625 -12.296875 C 21.96875 -10.992188 22.054688 -9.554688 21.890625 -7.984375 L 21.84375 -7.9375 C 21.675781 -6.382812 21.300781 -5.015625 20.71875 -3.828125 C 20.09375 -2.597656 19.28125 -1.5625 18.28125 -0.71875 C 17.320312 0.0820312 16.191406 0.675781 14.890625 1.0625 C 13.546875 1.457031 12.148438 1.578125 10.703125 1.421875 C 9.253906 1.265625 7.910156 0.851562 6.671875 0.1875 C 5.453125 -0.46875 4.46875 -1.289062 3.71875 -2.28125 C 2.925781 -3.3125 2.359375 -4.492188 2.015625 -5.828125 Z M 4.515625 -9.796875 C 4.378906 -8.546875 4.429688 -7.40625 4.671875 -6.375 C 4.890625 -5.375 5.289062 -4.476562 5.875 -3.6875 C 6.445312 -2.925781 7.148438 -2.316406 7.984375 -1.859375 C 8.878906 -1.378906 9.859375 -1.082031 10.921875 -0.96875 C 11.992188 -0.851562 13.015625 -0.941406 13.984375 -1.234375 C 14.910156 -1.492188 15.726562 -1.9375 16.4375 -2.5625 C 17.132812 -3.1875 17.703125 -3.976562 18.140625 -4.9375 C 18.585938 -5.894531 18.878906 -7 19.015625 -8.25 L 19 -8.25 C 19.132812 -9.53125 19.085938 -10.679688 18.859375 -11.703125 C 18.585938 -12.796875 18.203125 -13.691406 17.703125 -14.390625 C 17.148438 -15.140625 16.445312 -15.75 15.59375 -16.21875 C 14.75 -16.664062 13.753906 -16.945312 12.609375 -17.0625 C 11.515625 -17.175781 10.507812 -17.101562 9.59375 -16.84375 C 8.664062 -16.582031 7.847656 -16.140625 7.140625 -15.515625 C 6.421875 -14.898438 5.835938 -14.113281 5.390625 -13.15625 C 4.941406 -12.195312 4.648438 -11.078125 4.515625 -9.796875 Z M 4.515625 -9.796875 "/></g></g></g><g fill="#000000" fill-opacity="1"><g transform="translate(188.370533, 369.508696)"><g><path d="M -0.421875 -19.34375 L -0.46875 -20.546875 L 6.71875 -20.890625 L 6.765625 -19.6875 C 6.785156 -19.382812 6.644531 -19.195312 6.34375 -19.125 C 5.957031 -19.03125 5.335938 -18.894531 4.484375 -18.71875 L 4.96875 -8.328125 C 5.050781 -6.535156 5.59375 -5.144531 6.59375 -4.15625 C 7.601562 -3.125 8.953125 -2.644531 10.640625 -2.71875 C 12.328125 -2.800781 13.640625 -3.40625 14.578125 -4.53125 C 15.472656 -5.632812 15.878906 -7.054688 15.796875 -8.796875 L 15.3125 -19.21875 C 14.363281 -19.320312 13.726562 -19.398438 13.40625 -19.453125 C 13.09375 -19.492188 12.925781 -19.664062 12.90625 -19.96875 L 12.859375 -21.171875 L 15.21875 -21.28125 L 17.984375 -21.421875 L 20.046875 -21.515625 L 20.09375 -20.28125 C 20.113281 -19.976562 19.96875 -19.785156 19.65625 -19.703125 L 18.046875 -19.3125 L 18.53125 -8.890625 C 18.644531 -6.554688 18.007812 -4.5625 16.625 -2.90625 C 15.207031 -1.25 13.242188 -0.363281 10.734375 -0.25 C 8.253906 -0.132812 6.234375 -0.832031 4.671875 -2.34375 C 3.117188 -3.863281 2.285156 -5.796875 2.171875 -8.140625 L 1.6875 -18.5625 C 0.769531 -18.6875 0.222656 -18.773438 0.046875 -18.828125 C -0.242188 -18.859375 -0.398438 -19.03125 -0.421875 -19.34375 Z M -0.421875 -19.34375 "/></g></g></g><g fill="#000000" fill-opacity="1"><g transform="translate(212.82832, 368.06283)"><g><path d="M 0.9375 -0.21875 L 0.703125 -1.4375 C 0.640625 -1.707031 0.738281 -1.898438 1 -2.015625 L 2.578125 -2.671875 L -0.53125 -18.71875 C -1.5 -18.726562 -2.066406 -18.738281 -2.234375 -18.75 C -2.523438 -18.757812 -2.695312 -18.898438 -2.75 -19.171875 L -2.984375 -20.421875 L -0.96875 -20.8125 L 4.46875 -21.859375 C 5.71875 -22.097656 6.851562 -22.175781 7.875 -22.09375 C 8.84375 -22.039062 9.6875 -21.820312 10.40625 -21.4375 C 11.125 -21.050781 11.691406 -20.546875 12.109375 -19.921875 C 12.523438 -19.273438 12.816406 -18.523438 12.984375 -17.671875 C 13.109375 -16.992188 13.117188 -16.3125 13.015625 -15.625 C 12.921875 -14.976562 12.703125 -14.351562 12.359375 -13.75 C 12.023438 -13.144531 11.59375 -12.613281 11.0625 -12.15625 C 10.425781 -11.625 9.78125 -11.222656 9.125 -10.953125 C 9.519531 -10.816406 9.878906 -10.59375 10.203125 -10.28125 L 15.71875 -5.15625 C 16.71875 -5.1875 17.265625 -5.195312 17.359375 -5.1875 L 17.328125 -5.171875 C 17.617188 -5.171875 17.796875 -5.035156 17.859375 -4.765625 L 18.09375 -3.515625 L 17.578125 -3.40625 L 16.0625 -3.109375 L 15.15625 -2.9375 C 14.664062 -2.84375 14.273438 -2.972656 13.984375 -3.328125 L 7.328125 -9.53125 C 7.148438 -9.675781 6.953125 -9.800781 6.734375 -9.90625 C 6.535156 -9.976562 6.242188 -9.976562 5.859375 -9.90625 L 4.046875 -9.5625 L 5.28125 -3.203125 C 6.226562 -3.179688 6.773438 -3.164062 6.921875 -3.15625 C 7.054688 -3.15625 7.175781 -3.113281 7.28125 -3.03125 C 7.382812 -2.945312 7.453125 -2.851562 7.484375 -2.75 L 7.71875 -1.53125 L 5.6875 -1.140625 L 2.953125 -0.609375 Z M 3.65625 -11.53125 L 6.234375 -12.03125 L 6.203125 -12.03125 C 7.035156 -12.1875 7.726562 -12.410156 8.28125 -12.703125 C 8.789062 -12.992188 9.238281 -13.375 9.625 -13.84375 C 9.96875 -14.300781 10.195312 -14.78125 10.3125 -15.28125 C 10.414062 -15.789062 10.410156 -16.359375 10.296875 -16.984375 C 10.066406 -18.160156 9.5 -18.984375 8.59375 -19.453125 C 7.695312 -19.890625 6.460938 -19.957031 4.890625 -19.65625 L 2.171875 -19.125 Z M 3.65625 -11.53125 "/></g></g></g><g fill="#000000" fill-opacity="1"><g transform="translate(234.404009, 363.559165)"><g><path d="M 0.703125 -1.125 L -0.890625 -6.046875 L 0.421875 -6.484375 C 0.742188 -6.578125 0.984375 -6.476562 1.140625 -6.1875 C 1.210938 -6.039062 1.394531 -5.613281 1.6875 -4.90625 L 2.15625 -3.71875 C 3.75 -3.675781 4.945312 -3.785156 5.75 -4.046875 C 6.519531 -4.296875 7.160156 -4.609375 7.671875 -4.984375 C 8.140625 -5.316406 8.476562 -5.691406 8.6875 -6.109375 C 9.175781 -6.972656 9.242188 -7.953125 8.890625 -9.046875 C 8.554688 -10.097656 7.8125 -10.738281 6.65625 -10.96875 C 6.070312 -11.09375 5.507812 -11.148438 4.96875 -11.140625 C 2.84375 -11.117188 1.570312 -11.128906 1.15625 -11.171875 C 0.5625 -11.234375 -0.046875 -11.398438 -0.671875 -11.671875 C -1.921875 -12.210938 -2.800781 -13.273438 -3.3125 -14.859375 C -3.78125 -16.296875 -3.671875 -17.695312 -2.984375 -19.0625 C -2.210938 -20.519531 -0.925781 -21.546875 0.875 -22.140625 C 2.75 -22.742188 4.691406 -22.972656 6.703125 -22.828125 L 8.171875 -18.296875 L 6.859375 -17.875 C 6.535156 -17.769531 6.296875 -17.867188 6.140625 -18.171875 C 6.140625 -18.179688 6.101562 -18.269531 6.03125 -18.4375 C 5.957031 -18.601562 5.84375 -18.878906 5.6875 -19.265625 C 5.53125 -19.648438 5.359375 -20.070312 5.171875 -20.53125 C 3.816406 -20.476562 2.679688 -20.300781 1.765625 -20 C 0.585938 -19.625 -0.226562 -19.035156 -0.6875 -18.234375 C -1.113281 -17.472656 -1.1875 -16.648438 -0.90625 -15.765625 C -0.59375 -14.796875 0.144531 -14.203125 1.3125 -13.984375 C 1.863281 -13.847656 2.453125 -13.785156 3.078125 -13.796875 C 4.828125 -13.785156 6.101562 -13.742188 6.90625 -13.671875 L 6.84375 -13.65625 C 9.101562 -13.40625 10.566406 -12.253906 11.234375 -10.203125 C 11.804688 -8.410156 11.710938 -6.769531 10.953125 -5.28125 C 10.148438 -3.71875 8.722656 -2.601562 6.671875 -1.9375 C 5.816406 -1.664062 4.898438 -1.457031 3.921875 -1.3125 C 3.222656 -1.195312 2.441406 -1.128906 1.578125 -1.109375 Z M 0.703125 -1.125 "/></g></g></g><g fill="#000000" fill-opacity="1"><g transform="translate(251.026712, 358.225697)"><g><path d="M 0.65625 -0.3125 L 0.15625 -1.359375 C 0.0507812 -1.578125 0.0976562 -1.765625 0.296875 -1.921875 L 1.1875 -2.734375 L -0.109375 -22.734375 L 2.4375 -23.9375 L 17.140625 -10.359375 L 18.34375 -10.546875 C 18.59375 -10.597656 18.769531 -10.515625 18.875 -10.296875 L 19.375 -9.25 L 14.046875 -6.703125 L 13.546875 -7.75 C 13.441406 -7.96875 13.5 -8.164062 13.71875 -8.34375 L 14.625 -9.15625 L 11.390625 -12.171875 L 3.375 -8.359375 L 3.703125 -3.9375 L 4.921875 -4.140625 C 5.171875 -4.191406 5.347656 -4.109375 5.453125 -3.890625 L 5.953125 -2.84375 Z M 3.21875 -10.5 L 9.84375 -13.65625 L 3.671875 -19.5 C 3.222656 -19.875 2.757812 -20.363281 2.28125 -20.96875 C 2.4375 -20.070312 2.539062 -19.398438 2.59375 -18.953125 Z M 3.21875 -10.5 "/></g></g></g><g fill="#000000" fill-opacity="1"><g transform="translate(273.728463, 347.113839)"><g><path d="M 0.828125 -0.53125 L 0.125 -1.546875 C -0.0390625 -1.785156 -0.0195312 -2.007812 0.1875 -2.21875 L 1.34375 -3.4375 L -7.9375 -16.921875 C -8.800781 -16.523438 -9.316406 -16.300781 -9.484375 -16.25 C -9.742188 -16.132812 -9.960938 -16.207031 -10.140625 -16.46875 L -10.828125 -17.484375 L -7.953125 -19.453125 C -7.753906 -19.597656 -7.597656 -19.679688 -7.484375 -19.703125 C -7.367188 -19.710938 -7.175781 -19.691406 -6.90625 -19.640625 L 11.671875 -13.609375 L 11.703125 -13.578125 C 11.515625 -13.773438 11.226562 -14.15625 10.84375 -14.71875 L 3.78125 -24.984375 C 3.5 -24.828125 3.222656 -24.691406 2.953125 -24.578125 C 2.679688 -24.460938 2.460938 -24.367188 2.296875 -24.296875 C 2.140625 -24.234375 2.050781 -24.191406 2.03125 -24.171875 C 1.75 -24.046875 1.523438 -24.101562 1.359375 -24.34375 L 0.65625 -25.375 L 2.59375 -26.71875 L 4.609375 -28.09375 L 6.328125 -29.28125 L 7.03125 -28.25 C 7.195312 -28 7.171875 -27.769531 6.953125 -27.5625 L 5.796875 -26.359375 L 16.265625 -11.140625 L 15.09375 -10.34375 C 14.78125 -10.125 14.421875 -10.082031 14.015625 -10.21875 L -4.578125 -16.234375 C -4.359375 -15.984375 -4.09375 -15.625 -3.78125 -15.15625 L 3.34375 -4.8125 C 3.875 -5.070312 4.46875 -5.34375 5.125 -5.625 C 5.375 -5.71875 5.582031 -5.644531 5.75 -5.40625 L 6.453125 -4.390625 Z M 0.828125 -0.53125 "/></g></g></g><g fill="#000000" fill-opacity="1"><g transform="translate(294.464363, 332.508957)"><g><path d="M 0.71875 -0.671875 L -0.109375 -1.546875 C -0.316406 -1.773438 -0.335938 -2.007812 -0.171875 -2.25 L 0.796875 -3.59375 L -10.453125 -15.5 C -11.222656 -15.007812 -11.695312 -14.722656 -11.875 -14.640625 C -12.125 -14.472656 -12.351562 -14.503906 -12.5625 -14.734375 L -13.390625 -15.609375 L -6.484375 -22.140625 C -4.265625 -24.242188 -1.851562 -25.238281 0.75 -25.125 C 3.414062 -25.03125 5.8125 -23.863281 7.9375 -21.625 C 8.988281 -20.5 9.769531 -19.300781 10.28125 -18.03125 C 10.757812 -16.820312 11 -15.566406 11 -14.265625 C 10.945312 -11.640625 9.820312 -9.285156 7.625 -7.203125 Z M 2.71875 -5.671875 L 6.078125 -8.84375 C 7.691406 -10.375 8.488281 -12.097656 8.46875 -14.015625 C 8.457031 -15.941406 7.585938 -17.820312 5.859375 -19.65625 C 4.972656 -20.59375 4.0625 -21.296875 3.125 -21.765625 C 2.15625 -22.265625 1.226562 -22.546875 0.34375 -22.609375 C -1.550781 -22.753906 -3.316406 -22.054688 -4.953125 -20.515625 L -8.3125 -17.34375 Z M 2.71875 -5.671875 "/></g></g></g><g fill="#000000" fill-opacity="1"><g transform="translate(311.899249, 315.584796)"><g><path d="M -12.125 -10.46875 L -15.671875 -13.296875 L -6.015625 -25.421875 L -5.390625 -26.1875 L -5.109375 -26.546875 L -1.5625 -23.71875 L -2.4375 -22.609375 C -2.632812 -22.378906 -2.828125 -22.296875 -3.015625 -22.359375 C -3.328125 -22.492188 -3.875 -22.816406 -4.65625 -23.328125 L -7.65625 -19.5625 L 4.953125 -9.5 C 4.992188 -9.5625 5.078125 -9.640625 5.203125 -9.734375 C 5.890625 -10.335938 6.265625 -10.65625 6.328125 -10.6875 C 6.484375 -10.789062 6.675781 -10.753906 6.90625 -10.578125 L 7.84375 -9.828125 L 3.5 -4.390625 L 2.5625 -5.140625 C 2.300781 -5.347656 2.253906 -5.597656 2.421875 -5.890625 C 2.453125 -5.972656 2.546875 -6.171875 2.703125 -6.484375 C 2.859375 -6.796875 3.003906 -7.078125 3.140625 -7.328125 L -9.453125 -17.375 L -12.484375 -13.578125 C -11.734375 -12.847656 -11.285156 -12.378906 -11.140625 -12.171875 C -11.015625 -12.015625 -11.054688 -11.804688 -11.265625 -11.546875 Z M -12.125 -10.46875 "/></g></g></g><g fill="#000000" fill-opacity="1"><g transform="translate(324.863704, 299.079267)"><g><path d="M 0.453125 -0.828125 L -0.609375 -1.46875 C -0.847656 -1.601562 -0.921875 -1.816406 -0.828125 -2.109375 L -0.265625 -3.703125 L -14.296875 -12.109375 C -14.953125 -11.390625 -15.335938 -10.972656 -15.453125 -10.859375 C -15.648438 -10.640625 -15.867188 -10.601562 -16.109375 -10.75 L -17.203125 -11.390625 L -16.140625 -13.171875 L -13.296875 -17.90625 C -12.640625 -19 -11.941406 -19.90625 -11.203125 -20.625 C -10.503906 -21.3125 -9.773438 -21.789062 -9.015625 -22.0625 C -8.242188 -22.332031 -7.488281 -22.414062 -6.75 -22.3125 C -6 -22.195312 -5.25 -21.914062 -4.5 -21.46875 C -3.90625 -21.113281 -3.382812 -20.664062 -2.9375 -20.125 C -2.53125 -19.613281 -2.210938 -19.03125 -1.984375 -18.375 C -1.753906 -17.726562 -1.65625 -17.054688 -1.6875 -16.359375 C -1.707031 -15.523438 -1.832031 -14.773438 -2.0625 -14.109375 C -1.695312 -14.316406 -1.296875 -14.429688 -0.859375 -14.453125 L 6.65625 -15.140625 C 7.300781 -15.898438 7.660156 -16.316406 7.734375 -16.390625 L 7.71875 -16.359375 C 7.914062 -16.566406 8.132812 -16.601562 8.375 -16.46875 L 9.46875 -15.8125 L 9.203125 -15.359375 L 8.40625 -14.03125 L 7.921875 -13.25 C 7.671875 -12.820312 7.316406 -12.617188 6.859375 -12.640625 L -2.203125 -11.8125 C -2.429688 -11.78125 -2.65625 -11.71875 -2.875 -11.625 C -3.0625 -11.53125 -3.257812 -11.316406 -3.46875 -10.984375 L -4.40625 -9.390625 L 1.15625 -6.0625 C 1.789062 -6.757812 2.160156 -7.164062 2.265625 -7.28125 C 2.367188 -7.363281 2.484375 -7.414062 2.609375 -7.4375 C 2.734375 -7.46875 2.84375 -7.457031 2.9375 -7.40625 L 4 -6.765625 L 2.953125 -4.984375 L 1.515625 -2.609375 Z M -6.140625 -10.40625 L -4.796875 -12.671875 L -4.8125 -12.640625 C -4.375 -13.359375 -4.082031 -14.023438 -3.9375 -14.640625 C -3.8125 -15.210938 -3.796875 -15.800781 -3.890625 -16.40625 C -3.992188 -16.957031 -4.195312 -17.445312 -4.5 -17.875 C -4.789062 -18.300781 -5.207031 -18.675781 -5.75 -19 C -6.78125 -19.613281 -7.773438 -19.742188 -8.734375 -19.390625 C -9.671875 -19.015625 -10.550781 -18.140625 -11.375 -16.765625 L -12.796875 -14.390625 Z M -6.140625 -10.40625 "/></g></g></g><g fill="#000000" fill-opacity="1"><g transform="translate(336.188899, 279.929969)"><g><path d="M 0.28125 -0.671875 L -0.78125 -1.109375 C -1.007812 -1.203125 -1.101562 -1.375 -1.0625 -1.625 L -0.953125 -2.828125 L -15.28125 -16.828125 L -14.203125 -19.421875 L 5.8125 -19.171875 L 6.578125 -20.09375 C 6.722656 -20.3125 6.910156 -20.375 7.140625 -20.28125 L 8.203125 -19.84375 L 5.953125 -14.375 L 4.890625 -14.8125 C 4.648438 -14.90625 4.5625 -15.085938 4.625 -15.359375 L 4.734375 -16.59375 L 0.328125 -16.6875 L -3.0625 -8.484375 L 0.109375 -5.40625 L 0.890625 -6.359375 C 1.023438 -6.566406 1.210938 -6.625 1.453125 -6.53125 L 2.515625 -6.09375 Z M -4.640625 -9.953125 L -1.84375 -16.734375 L -10.3125 -16.953125 C -10.894531 -16.929688 -11.570312 -16.984375 -12.34375 -17.109375 C -11.613281 -16.554688 -11.082031 -16.128906 -10.75 -15.828125 Z M -4.640625 -9.953125 "/></g></g></g><g fill="#000000" fill-opacity="1"><g transform="translate(345.630013, 256.48095)"><g><path d="M -18.625 -4.984375 L -19.859375 -5.28125 L -18.28125 -11.921875 L -17.046875 -11.625 C -16.753906 -11.550781 -16.617188 -11.320312 -16.640625 -10.9375 C -16.648438 -10.820312 -16.65625 -10.59375 -16.65625 -10.25 C -16.664062 -9.914062 -16.679688 -9.644531 -16.703125 -9.4375 L -2.78125 -11.5 C -2.207031 -11.59375 -1.425781 -11.640625 -0.4375 -11.640625 C -1.394531 -12.128906 -2.078125 -12.519531 -2.484375 -12.8125 L -13.984375 -20.90625 C -14.347656 -20.050781 -14.582031 -19.546875 -14.6875 -19.390625 C -14.800781 -19.128906 -15.007812 -19.035156 -15.3125 -19.109375 L -16.484375 -19.390625 L -14.875 -26 L -13.671875 -25.703125 C -13.390625 -25.640625 -13.253906 -25.472656 -13.265625 -25.203125 L -13.296875 -23.71875 L 2.953125 -12.078125 L 2.375 -9.65625 L -17.375 -6.640625 C -17.71875 -5.878906 -17.9375 -5.429688 -18.03125 -5.296875 C -18.144531 -5.023438 -18.34375 -4.921875 -18.625 -4.984375 Z M -18.625 -4.984375 "/></g></g></g><g fill="#000000" fill-opacity="1"><g transform="translate(351.130099, 231.757735)"><g><path d="M 0.09375 -0.984375 L -1.109375 -1.09375 C -1.421875 -1.125 -1.582031 -1.285156 -1.59375 -1.578125 L -1.765625 -3.21875 L -18.09375 -4.78125 C -18.34375 -3.875 -18.503906 -3.34375 -18.578125 -3.1875 C -18.660156 -2.90625 -18.851562 -2.78125 -19.15625 -2.8125 L -20.359375 -2.921875 L -18.96875 -17.578125 L -14.03125 -17.109375 L -14.15625 -15.765625 C -14.1875 -15.410156 -14.367188 -15.222656 -14.703125 -15.203125 C -14.722656 -15.210938 -14.816406 -15.21875 -14.984375 -15.21875 C -15.148438 -15.21875 -15.414062 -15.210938 -15.78125 -15.203125 C -16.15625 -15.203125 -16.539062 -15.207031 -16.9375 -15.21875 L -17.671875 -7.5625 L -10.859375 -6.90625 L -10.140625 -14.4375 L -7.96875 -14.234375 L -8.6875 -6.703125 L -1.6875 -6.046875 L -0.953125 -13.703125 C -2.203125 -13.929688 -2.878906 -14.050781 -2.984375 -14.0625 C -3.285156 -14.144531 -3.421875 -14.375 -3.390625 -14.75 L -3.265625 -16.09375 L 1.484375 -15.640625 Z M 0.09375 -0.984375 "/></g></g></g><g fill="#000000" fill-opacity="1"><g transform="translate(352.807398, 212.14914)"><g><path d="M -0.03125 -0.984375 L -1.265625 -0.953125 C -1.390625 -0.953125 -1.503906 -0.988281 -1.609375 -1.0625 C -1.710938 -1.132812 -1.78125 -1.234375 -1.8125 -1.359375 L -2.1875 -3 L -18.5625 -2.578125 C -18.707031 -1.640625 -18.796875 -1.085938 -18.828125 -0.921875 C -18.859375 -0.796875 -18.921875 -0.691406 -19.015625 -0.609375 C -19.117188 -0.523438 -19.238281 -0.484375 -19.375 -0.484375 L -20.578125 -0.453125 L -20.625 -2.515625 L -20.703125 -5.265625 L -20.75 -7.328125 L -19.546875 -7.359375 C -19.410156 -7.359375 -19.289062 -7.316406 -19.1875 -7.234375 C -19.09375 -7.160156 -19.023438 -7.0625 -18.984375 -6.9375 C -18.953125 -6.832031 -18.882812 -6.546875 -18.78125 -6.078125 C -18.6875 -5.609375 -18.640625 -5.359375 -18.640625 -5.328125 L -2.515625 -5.734375 L -2.703125 -13.140625 C -3.597656 -13.179688 -4.144531 -13.222656 -4.34375 -13.265625 C -4.476562 -13.285156 -4.59375 -13.351562 -4.6875 -13.46875 C -4.78125 -13.59375 -4.828125 -13.722656 -4.828125 -13.859375 L -4.859375 -15.28125 L -0.390625 -15.390625 L -0.375 -14.703125 L -0.375 -14.46875 L -0.078125 -3.046875 Z M -0.03125 -0.984375 "/></g></g></g><g fill="#000000" fill-opacity="1"><g transform="translate(352.108413, 193.033112)"><g><path d="M -0.984375 -0.875 L -6.109375 -0.171875 L -6.296875 -1.5625 C -6.347656 -1.882812 -6.210938 -2.09375 -5.890625 -2.1875 C -5.742188 -2.25 -5.289062 -2.359375 -4.53125 -2.515625 L -3.28125 -2.78125 C -2.957031 -4.34375 -2.851562 -5.539062 -2.96875 -6.375 C -3.082031 -7.175781 -3.28125 -7.863281 -3.5625 -8.4375 C -3.8125 -8.945312 -4.125 -9.34375 -4.5 -9.625 C -5.269531 -10.25 -6.222656 -10.484375 -7.359375 -10.328125 C -8.453125 -10.171875 -9.210938 -9.546875 -9.640625 -8.453125 C -9.867188 -7.898438 -10.019531 -7.359375 -10.09375 -6.828125 C -10.445312 -4.734375 -10.679688 -3.484375 -10.796875 -3.078125 C -10.953125 -2.515625 -11.222656 -1.941406 -11.609375 -1.359375 C -12.367188 -0.222656 -13.570312 0.457031 -15.21875 0.6875 C -16.707031 0.894531 -18.066406 0.535156 -19.296875 -0.390625 C -20.597656 -1.398438 -21.378906 -2.84375 -21.640625 -4.71875 C -21.910156 -6.664062 -21.800781 -8.617188 -21.3125 -10.578125 L -16.609375 -11.234375 L -16.421875 -9.875 C -16.367188 -9.53125 -16.503906 -9.3125 -16.828125 -9.21875 C -16.835938 -9.21875 -16.929688 -9.195312 -17.109375 -9.15625 C -17.285156 -9.113281 -17.578125 -9.046875 -17.984375 -8.953125 C -18.390625 -8.867188 -18.835938 -8.769531 -19.328125 -8.65625 C -19.503906 -7.3125 -19.53125 -6.164062 -19.40625 -5.21875 C -19.226562 -3.988281 -18.785156 -3.082031 -18.078125 -2.5 C -17.410156 -1.945312 -16.617188 -1.738281 -15.703125 -1.875 C -14.691406 -2.007812 -13.96875 -2.628906 -13.53125 -3.734375 C -13.3125 -4.253906 -13.148438 -4.816406 -13.046875 -5.421875 C -12.734375 -7.148438 -12.472656 -8.40625 -12.265625 -9.1875 L -12.25 -9.125 C -11.613281 -11.289062 -10.226562 -12.523438 -8.09375 -12.828125 C -6.226562 -13.085938 -4.628906 -12.710938 -3.296875 -11.703125 C -1.890625 -10.648438 -1.039062 -9.054688 -0.75 -6.921875 C -0.625 -6.035156 -0.578125 -5.09375 -0.609375 -4.09375 C -0.617188 -3.382812 -0.691406 -2.601562 -0.828125 -1.75 Z M -0.984375 -0.875 "/></g></g></g></svg>