<svg xmlns="http://www.w3.org/2000/svg" xmlns:xlink="http://www.w3.org/1999/xlink" width="500" zoomAndPan="magnify" viewBox="0 0 375 374.999991" height="500" preserveAspectRatio="xMidYMid meet" version="1.0"><defs><g/><clipPath id="9f7832b169"><path d="M 88 109 L 289 109 L 289 276.699219 L 88 276.699219 Z M 88 109 " clip-rule="nonzero"/></clipPath><clipPath id="0b8009b0e7"><path d="M 63 8.949219 L 208 8.949219 L 208 185 L 63 185 Z M 63 8.949219 " clip-rule="nonzero"/></clipPath></defs><g clip-path="url(#9f7832b169)"><path fill="#51ade5" d="M 158.707031 223.851562 C 168.277344 222.59375 177.386719 214.039062 177.558594 213.878906 C 177.539062 213.941406 177.859375 214.554688 186.464844 220.445312 C 196.800781 227.527344 206.1875 216.957031 206.1875 216.957031 C 220.261719 225.726562 229.925781 221.578125 229.925781 221.578125 C 221.367188 227.144531 209.1875 223.464844 209.1875 223.464844 C 190.539062 233.984375 177.925781 221.394531 177.925781 221.394531 C 170.097656 225.136719 158.707031 223.851562 158.707031 223.851562 Z M 88.996094 215.574219 C 94.949219 228.601562 103.5 240.1875 113.976562 249.671875 C 144.058594 244.84375 155.679688 231.136719 155.679688 231.136719 C 155.679688 231.136719 164.394531 246.3125 185 246.167969 C 205.601562 246.023438 210.144531 231.136719 210.144531 231.136719 C 210.144531 231.136719 217.488281 240.757812 236.503906 245.425781 C 248.722656 248.429688 263.050781 240.824219 267.234375 235.035156 L 267.238281 235.023438 C 259.929688 233.226562 254.796875 231.316406 254.796875 231.316406 C 240.132812 240.144531 224.707031 233.722656 224.707031 233.722656 C 240.175781 236.503906 253.035156 217.179688 253.035156 217.179688 C 253.035156 217.179688 258.621094 224.304688 271.015625 229.671875 C 281.910156 213.164062 288.253906 193.382812 288.253906 172.113281 C 288.253906 148.632812 280.519531 126.957031 267.46875 109.503906 C 265.683594 110.773438 263.613281 112.464844 261 115.289062 C 239.640625 138.371094 209.113281 161.125 185.292969 176.039062 C 152.707031 196.441406 118.523438 209.671875 88.996094 215.574219 Z M 116.214844 251.640625 C 134.4375 267.21875 158.078125 276.628906 183.914062 276.628906 C 206.53125 276.628906 227.472656 269.417969 244.566406 257.167969 C 226.335938 257.605469 213.601562 247.21875 213.601562 247.21875 C 185.050781 267.730469 155.679688 246.3125 155.679688 246.3125 C 135.363281 251.992188 122.9375 252.308594 116.214844 251.640625 " fill-opacity="1" fill-rule="nonzero"/></g><path fill="#3871c1" d="M 185.292969 176.039062 C 209.113281 161.125 239.640625 138.371094 261 115.289062 C 263.613281 112.464844 265.683594 110.773438 267.46875 109.503906 C 267.964844 110.171875 268.457031 110.847656 268.9375 111.523438 C 256.242188 131.105469 231.671875 164.597656 196.882812 192.128906 C 166.035156 216.542969 134.257812 234.050781 107.242188 243 C 99.804688 234.929688 93.617188 225.6875 88.996094 215.574219 C 118.523438 209.671875 152.707031 196.441406 185.292969 176.039062 " fill-opacity="1" fill-rule="nonzero"/><path fill="#f68712" d="M 257.148438 97.667969 C 246.03125 109.824219 225.328125 129.996094 196.246094 148.085938 C 171.460938 163.5 145.59375 175.09375 123.054688 181.273438 C 118.300781 182.574219 113.695312 183.636719 109.28125 184.441406 C 102.617188 185.65625 96.390625 186.292969 90.734375 186.292969 C 86.894531 186.292969 83.4375 185.996094 80.414062 185.429688 C 79.859375 181.070312 79.574219 176.625 79.574219 172.113281 C 79.574219 134.136719 99.796875 100.890625 130.039062 82.589844 C 139.347656 76.953125 149.613281 72.734375 160.527344 70.234375 C 160.585938 70.21875 160.640625 70.207031 160.695312 70.195312 C 163.535156 69.546875 166.417969 69.019531 169.335938 68.609375 C 169.742188 68.550781 170.148438 68.5 170.558594 68.445312 C 173.445312 68.074219 176.367188 67.824219 179.324219 67.699219 C 179.511719 67.6875 179.703125 67.679688 179.890625 67.675781 C 181.226562 67.621094 182.566406 67.597656 183.914062 67.597656 C 189.21875 67.597656 194.425781 67.992188 199.515625 68.757812 C 221.816406 72.109375 241.808594 82.53125 257.148438 97.667969 " fill-opacity="1" fill-rule="nonzero"/><path fill="#2c3892" d="M 313.046875 54.222656 C 321.148438 41.785156 325.523438 30.738281 322.914062 28.957031 C 320.304688 27.171875 311.636719 35.285156 303.027344 47.375 L 269.96875 47.628906 L 264.671875 55.402344 L 290.59375 66.769531 C 287.253906 72.28125 283.800781 78.183594 280.777344 83.621094 L 263.875 82.734375 L 261.34375 86.457031 L 275.800781 92.949219 C 275.542969 93.460938 249.480469 128.183594 202.152344 157.617188 C 138.136719 197.433594 73.691406 209.476562 58.1875 184.476562 C 47.441406 167.15625 63.023438 136.597656 94.902344 106.214844 C 43.902344 145.792969 15.773438 190.195312 30.082031 213.265625 C 47.140625 240.769531 118.179688 227.730469 188.480469 183.714844 C 245.332031 148.121094 280.464844 96.414062 280.617188 96.242188 L 286.707031 104.703125 L 289.242188 100.980469 L 287.472656 88.199219 C 291.421875 83.394531 295.652344 78.015625 299.558594 72.894531 L 305.332031 90.554688 L 310.628906 82.78125 L 313.046875 54.222656 " fill-opacity="1" fill-rule="nonzero"/><g clip-path="url(#0b8009b0e7)"><path fill="#24265d" d="M 182.640625 69.921875 C 185.976562 72.796875 190.019531 74.6875 194.335938 75.523438 C 198.914062 76.40625 203.183594 77.792969 207.886719 80.03125 C 207.886719 80.03125 205.035156 74.632812 199.515625 68.757812 C 191.28125 59.988281 177.097656 50.167969 157.582031 55.691406 C 157.867188 55.511719 158.15625 55.328125 158.445312 55.144531 C 157.039062 54.585938 155.40625 54.128906 153.5625 53.921875 C 153.5625 53.921875 154.535156 53.628906 156.132812 53.613281 C 159.15625 53.578125 162.132812 52.839844 164.777344 51.375 L 164.867188 51.324219 C 163.273438 50.59375 162.398438 49.375 160.148438 49.125 C 160.148438 49.125 161.445312 48.734375 163.507812 48.828125 C 166.929688 48.984375 170.34375 48.347656 173.429688 46.859375 C 173.601562 46.777344 173.777344 46.695312 173.953125 46.609375 C 172.222656 45.71875 170.011719 44.90625 167.367188 44.617188 C 167.367188 44.617188 169.191406 44.007812 171.738281 44.019531 C 176.804688 44.042969 181.816406 43 186.515625 41.105469 C 186.710938 41.027344 186.898438 40.953125 187.074219 40.882812 C 182.949219 39.648438 177.414062 38.402344 174.742188 38.105469 C 174.742188 38.105469 187.90625 36.730469 197.625 37.699219 C 197.625 37.699219 164.820312 15.03125 146.300781 56.375 C 149.375 46.050781 150.277344 28.078125 133.90625 16.898438 C 126.222656 11.652344 115.683594 8.996094 115.683594 8.996094 C 118.59375 11.867188 132.941406 28.84375 134.214844 31.441406 C 134.105469 31.359375 130.578125 28.746094 126.4375 27 C 126.5 27.199219 126.566406 27.394531 126.628906 27.59375 C 127.746094 31.1875 134.527344 39.472656 135.304688 41.058594 C 135.304688 41.058594 132.453125 38.925781 128.847656 37.207031 C 129.691406 42.425781 132.105469 48.011719 132.324219 52.722656 C 115.8125 20.542969 79.738281 30.539062 79.738281 30.539062 C 91.601562 31.808594 107 36.730469 107 36.730469 C 103.730469 36.417969 96.804688 36.53125 91.566406 36.976562 C 91.742188 37.09375 91.929688 37.21875 92.125 37.347656 C 97.304688 40.800781 103.070312 43.304688 109.164062 44.558594 C 112.191406 45.183594 114.203125 46.351562 114.203125 46.351562 C 110.96875 46.042969 108.121094 46.460938 105.832031 47.097656 L 106.105469 47.304688 C 109.566406 49.941406 113.632812 51.648438 117.921875 52.378906 C 120.320312 52.789062 121.714844 53.546875 121.714844 53.546875 C 118.960938 53.285156 117.613281 54.523438 115.523438 55 C 115.621094 55.082031 115.707031 55.160156 115.796875 55.234375 C 116.550781 55.882812 117.339844 56.472656 118.171875 57 C 75.023438 43.023438 63.789062 74.316406 63.789062 74.316406 C 73.484375 67.558594 88.148438 61.242188 88.433594 61.117188 C 85.761719 63.027344 80.601562 67.652344 76.9375 71.425781 C 76.972656 71.417969 77.003906 71.414062 77.039062 71.410156 C 83.550781 70.542969 89.820312 68.445312 95.632812 65.375 C 98.132812 64.054688 100.171875 63.664062 100.171875 63.664062 C 97.527344 65.554688 95.648438 67.734375 94.332031 69.71875 C 94.390625 69.714844 94.449219 69.710938 94.503906 69.707031 C 98.921875 69.425781 103.179688 68.042969 106.96875 65.753906 C 108.960938 64.550781 110.457031 64.199219 110.550781 64.179688 C 108.300781 65.785156 108.09375 67.609375 106.828125 69.335938 L 106.914062 69.335938 C 110.566406 69.316406 114.175781 68.417969 117.371094 66.644531 C 119.101562 65.683594 120.347656 65.390625 120.421875 65.375 C 118.582031 66.691406 117.109375 68.152344 115.941406 69.585938 C 117.664062 69.675781 119.304688 69.789062 120.863281 69.914062 C 97.070312 75.78125 97.210938 103.417969 97.210938 103.417969 C 98.613281 100.460938 100.429688 97.902344 102.511719 95.671875 C 103.535156 90.25 105.710938 86.007812 105.710938 86.007812 C 105.234375 88.726562 106.261719 94.992188 106.28125 94.976562 C 109.703125 91.96875 111.167969 86.507812 112.933594 82.304688 C 113.390625 81.21875 113.714844 80.589844 113.714844 80.589844 C 113.246094 83.242188 113.027344 85.613281 112.972656 87.707031 C 112.996094 87.691406 113.027344 87.675781 113.050781 87.664062 C 117.558594 85.144531 121.160156 81.261719 123.226562 76.523438 C 123.574219 75.730469 123.078125 80.746094 123.054688 82.984375 C 129.164062 77.34375 132.933594 78.933594 132.933594 78.933594 C 132.027344 80.011719 131.054688 81.226562 130.039062 82.589844 C 119.003906 97.40625 102.9375 129.257812 109.28125 184.441406 C 113.695312 183.636719 118.300781 182.574219 123.054688 181.273438 C 117.882812 159.667969 111.71875 115.222656 136.921875 82.222656 C 136.925781 82.464844 137.847656 80.738281 138.65625 79.859375 C 138.804688 79.984375 137.027344 87.464844 136.917969 90.582031 L 136.914062 90.65625 C 138.402344 89.632812 139.9375 89.503906 141.347656 87.648438 C 141.328125 87.722656 140.992188 88.980469 139.929688 90.628906 C 137.90625 93.773438 136.636719 97.335938 136.285156 101.054688 C 136.28125 101.097656 136.277344 101.144531 136.273438 101.1875 C 137.972656 100.132812 139.855469 98.601562 141.511719 96.421875 C 141.488281 96.523438 141.097656 98.195312 139.957031 100.210938 C 137.222656 105.03125 135.300781 110.269531 134.40625 115.742188 C 134.402344 115.769531 134.394531 115.796875 134.390625 115.828125 C 137.65625 112.832031 141.679688 108.59375 143.355469 106.386719 C 143.238281 106.640625 137.550781 118.839844 131.625 126.847656 C 131.625 126.847656 158.152344 115.125 149.421875 81.601562 C 150.683594 86.640625 153.625 91.082031 157.765625 94.207031 C 157.796875 94.230469 157.832031 94.253906 157.863281 94.28125 C 158.324219 92.433594 158.503906 87.574219 158.585938 85.273438 C 158.585938 85.273438 163.925781 91.734375 166.085938 100.945312 L 166.148438 101.003906 C 166.578125 99.222656 167.140625 94.453125 167.222656 92.265625 C 167.222656 92.265625 171.167969 100.304688 177.648438 117.703125 C 177.648438 117.703125 185.625 87.761719 162.664062 71.503906 C 165.710938 73.085938 169.109375 73.902344 172.566406 73.878906 L 172.664062 73.875 C 172.152344 72.683594 169.359375 69.503906 168.9375 68.90625 C 168.9375 68.90625 179.066406 73.882812 183.207031 74.175781 L 183.324219 74.183594 C 182.699219 72.765625 179.792969 68.269531 179.601562 67.996094 C 179.601562 67.996094 181.605469 69.03125 182.640625 69.921875 " fill-opacity="1" fill-rule="nonzero"/></g><g fill="#000000" fill-opacity="1"><g transform="translate(98.746503, 282.041032)"><g><path d="M 0.59375 0.28125 C 1.28125 -0.476562 1.703125 -0.863281 1.859375 -0.875 C 1.984375 -0.882812 2.109375 -0.835938 2.234375 -0.734375 C 2.367188 -0.640625 2.503906 -0.503906 2.640625 -0.328125 C 2.785156 -0.109375 3.015625 0.117188 3.328125 0.359375 L 3.3125 0.375 C 5.070312 1.738281 6.804688 1.328125 8.515625 -0.859375 L 14.40625 -8.4375 C 13.738281 -9.132812 13.367188 -9.539062 13.296875 -9.65625 C 13.140625 -9.832031 13.140625 -10.019531 13.296875 -10.21875 L 13.921875 -11.03125 L 18.6875 -7.328125 L 18.0625 -6.515625 C 17.90625 -6.316406 17.710938 -6.28125 17.484375 -6.40625 L 16.25 -7.015625 L 10.390625 0.515625 C 8.585938 2.847656 6.59375 3.71875 4.40625 3.125 C 3.726562 2.945312 3.054688 2.597656 2.390625 2.078125 C 1.679688 1.535156 1.082031 0.9375 0.59375 0.28125 Z M 0.59375 0.28125 "/></g></g></g><g fill="#000000" fill-opacity="1"><g transform="translate(109.010154, 290.139152)"><g><path d="M 0.515625 0.296875 L 1.015625 -0.53125 C 1.109375 -0.707031 1.265625 -0.765625 1.484375 -0.703125 L 2.453125 -0.453125 L 15.796875 -10.703125 L 17.828125 -9.5 L 15.25 7.125 L 15.921875 7.84375 C 16.066406 8 16.09375 8.164062 16 8.34375 L 15.5 9.171875 L 11.234375 6.65625 L 11.734375 5.828125 C 11.835938 5.640625 12 5.582031 12.21875 5.65625 L 13.21875 5.921875 L 13.828125 2.25 L 7.421875 -1.546875 L 4.484375 0.75 L 5.171875 1.484375 C 5.335938 1.640625 5.367188 1.8125 5.265625 2 L 4.765625 2.828125 Z M 8.828125 -2.671875 L 14.125 0.46875 L 15.3125 -6.578125 C 15.382812 -7.054688 15.507812 -7.597656 15.6875 -8.203125 C 15.132812 -7.671875 14.71875 -7.285156 14.4375 -7.046875 Z M 8.828125 -2.671875 "/></g></g></g><g fill="#000000" fill-opacity="1"><g transform="translate(127.347757, 300.700879)"><g><path d="M 6.53125 -14.84375 L 6.921875 -15.796875 L 12.28125 -13.640625 L 11.890625 -12.6875 C 11.796875 -12.445312 11.625 -12.34375 11.375 -12.375 C 10.507812 -12.550781 10.054688 -12.648438 10.015625 -12.671875 L 10.9375 -6.359375 C 11.007812 -5.617188 11.035156 -5.0625 11.015625 -4.6875 C 11.390625 -5.113281 11.796875 -5.5 12.234375 -5.84375 L 17.3125 -9.71875 C 17.25 -9.75 16.847656 -10.007812 16.109375 -10.5 C 15.898438 -10.632812 15.847656 -10.820312 15.953125 -11.0625 L 16.328125 -12 L 21.703125 -9.8125 L 21.3125 -8.828125 C 21.21875 -8.609375 21.070312 -8.507812 20.875 -8.53125 C 20.820312 -8.539062 20.738281 -8.554688 20.625 -8.578125 C 20.507812 -8.597656 20.347656 -8.625 20.140625 -8.65625 C 19.941406 -8.6875 19.757812 -8.71875 19.59375 -8.75 L 11.46875 -2.734375 L 9.5625 2 C 9.882812 2.238281 10.273438 2.5 10.734375 2.78125 C 10.941406 2.914062 11 3.097656 10.90625 3.328125 L 10.515625 4.296875 L 8.890625 3.640625 L 6.71875 2.75 L 5.125 2.109375 L 5.515625 1.140625 C 5.609375 0.921875 5.78125 0.832031 6.03125 0.875 L 7.390625 1.109375 L 9.296875 -3.625 L 7.6875 -13.578125 C 7.15625 -13.960938 6.816406 -14.195312 6.671875 -14.28125 C 6.484375 -14.414062 6.4375 -14.601562 6.53125 -14.84375 Z M 6.53125 -14.84375 "/></g></g></g><g fill="#000000" fill-opacity="1"><g transform="translate(145.376315, 307.756304)"><g><path d="M 3.8125 -12.921875 L 4.75 -16.59375 L 17.359375 -13.390625 L 18.15625 -13.203125 L 18.515625 -13.109375 L 17.578125 -9.4375 L 16.4375 -9.71875 C 16.1875 -9.78125 16.0625 -9.890625 16.0625 -10.046875 C 16.050781 -10.316406 16.109375 -10.847656 16.234375 -11.640625 L 12.3125 -12.625 L 8.984375 0.484375 C 9.046875 0.492188 9.128906 0.53125 9.234375 0.59375 C 9.941406 0.925781 10.316406 1.101562 10.359375 1.125 C 10.492188 1.21875 10.53125 1.378906 10.46875 1.609375 L 10.21875 2.59375 L 4.578125 1.15625 L 4.828125 0.171875 C 4.890625 -0.0859375 5.0625 -0.210938 5.34375 -0.203125 C 5.425781 -0.191406 5.613281 -0.179688 5.90625 -0.171875 C 6.207031 -0.160156 6.46875 -0.148438 6.6875 -0.140625 L 10 -13.25 L 6.0625 -14.234375 C 5.78125 -13.421875 5.582031 -12.921875 5.46875 -12.734375 C 5.375 -12.597656 5.195312 -12.566406 4.9375 -12.640625 Z M 3.8125 -12.921875 "/></g></g></g><g fill="#000000" fill-opacity="1"><g transform="translate(162.524585, 312.017481)"><g><path d="M 1.6875 -4.875 C 1.382812 -6.007812 1.300781 -7.210938 1.4375 -8.484375 C 1.570312 -9.765625 1.910156 -10.929688 2.453125 -11.984375 C 2.953125 -13.003906 3.625 -13.863281 4.46875 -14.5625 C 5.3125 -15.269531 6.269531 -15.78125 7.34375 -16.09375 C 8.4375 -16.425781 9.601562 -16.523438 10.84375 -16.390625 C 12.082031 -16.265625 13.210938 -15.921875 14.234375 -15.359375 C 15.253906 -14.804688 16.085938 -14.117188 16.734375 -13.296875 C 17.398438 -12.429688 17.878906 -11.441406 18.171875 -10.328125 C 18.453125 -9.234375 18.523438 -8.03125 18.390625 -6.71875 L 18.359375 -6.671875 C 18.222656 -5.367188 17.894531 -4.210938 17.375 -3.203125 C 16.851562 -2.171875 16.179688 -1.304688 15.359375 -0.609375 C 14.535156 0.078125 13.582031 0.578125 12.5 0.890625 C 11.363281 1.222656 10.1875 1.320312 8.96875 1.1875 C 7.75 1.0625 6.628906 0.71875 5.609375 0.15625 C 4.578125 -0.394531 3.742188 -1.082031 3.109375 -1.90625 C 2.441406 -2.769531 1.96875 -3.757812 1.6875 -4.875 Z M 3.78125 -8.21875 C 3.664062 -7.15625 3.710938 -6.195312 3.921875 -5.34375 C 4.117188 -4.5 4.453125 -3.753906 4.921875 -3.109375 C 5.410156 -2.460938 6.003906 -1.945312 6.703125 -1.5625 C 7.453125 -1.15625 8.273438 -0.90625 9.171875 -0.8125 C 10.066406 -0.71875 10.921875 -0.789062 11.734375 -1.03125 C 12.515625 -1.257812 13.203125 -1.632812 13.796875 -2.15625 C 14.378906 -2.664062 14.859375 -3.320312 15.234375 -4.125 C 15.617188 -4.925781 15.867188 -5.859375 15.984375 -6.921875 L 15.953125 -6.921875 C 16.066406 -7.984375 16.023438 -8.953125 15.828125 -9.828125 C 15.609375 -10.742188 15.285156 -11.492188 14.859375 -12.078125 C 14.378906 -12.710938 13.785156 -13.226562 13.078125 -13.625 C 12.367188 -13.988281 11.539062 -14.222656 10.59375 -14.328125 C 9.664062 -14.421875 8.816406 -14.363281 8.046875 -14.15625 C 7.265625 -13.925781 6.578125 -13.550781 5.984375 -13.03125 C 5.390625 -12.488281 4.898438 -11.816406 4.515625 -11.015625 C 4.140625 -10.210938 3.894531 -9.28125 3.78125 -8.21875 Z M 3.78125 -8.21875 "/></g></g></g><g fill="#000000" fill-opacity="1"><g transform="translate(183.177123, 314.017609)"><g><path d="M -0.34375 -16.234375 L -0.390625 -17.25 L 5.65625 -17.53125 L 5.703125 -16.515625 C 5.710938 -16.265625 5.59375 -16.109375 5.34375 -16.046875 C 5.007812 -15.972656 4.484375 -15.859375 3.765625 -15.703125 L 4.171875 -7 C 4.234375 -5.488281 4.6875 -4.316406 5.53125 -3.484375 C 6.382812 -2.617188 7.519531 -2.21875 8.9375 -2.28125 C 10.351562 -2.34375 11.445312 -2.847656 12.21875 -3.796875 C 12.976562 -4.734375 13.328125 -5.9375 13.265625 -7.40625 L 12.859375 -16.140625 C 12.054688 -16.210938 11.519531 -16.273438 11.25 -16.328125 C 10.988281 -16.367188 10.851562 -16.515625 10.84375 -16.765625 L 10.796875 -17.78125 L 12.78125 -17.875 L 15.09375 -17.96875 L 16.828125 -18.0625 L 16.875 -17.03125 C 16.882812 -16.769531 16.757812 -16.601562 16.5 -16.53125 L 15.140625 -16.21875 L 15.546875 -7.46875 C 15.640625 -5.5 15.109375 -3.820312 13.953125 -2.4375 C 12.765625 -1.039062 11.117188 -0.296875 9.015625 -0.203125 C 6.929688 -0.109375 5.234375 -0.695312 3.921875 -1.96875 C 2.617188 -3.238281 1.921875 -4.859375 1.828125 -6.828125 L 1.421875 -15.578125 C 0.648438 -15.679688 0.191406 -15.753906 0.046875 -15.796875 C -0.203125 -15.828125 -0.332031 -15.972656 -0.34375 -16.234375 Z M -0.34375 -16.234375 "/></g></g></g><g fill="#000000" fill-opacity="1"><g transform="translate(203.703261, 312.804148)"><g><path d="M 0.78125 -0.1875 L 0.578125 -1.203125 C 0.535156 -1.421875 0.628906 -1.582031 0.859375 -1.6875 L 2.15625 -2.234375 L -0.453125 -15.71875 C -1.265625 -15.726562 -1.734375 -15.734375 -1.859375 -15.734375 C -2.109375 -15.734375 -2.257812 -15.851562 -2.3125 -16.09375 L -2.515625 -17.140625 L -0.8125 -17.46875 L 3.75 -18.34375 C 4.800781 -18.550781 5.75 -18.625 6.59375 -18.5625 C 7.425781 -18.507812 8.140625 -18.316406 8.734375 -17.984375 C 9.335938 -17.660156 9.816406 -17.238281 10.171875 -16.71875 C 10.503906 -16.1875 10.742188 -15.554688 10.890625 -14.828125 C 10.992188 -14.265625 11.003906 -13.691406 10.921875 -13.109375 C 10.835938 -12.566406 10.65625 -12.039062 10.375 -11.53125 C 10.09375 -11.03125 9.726562 -10.59375 9.28125 -10.21875 C 8.75 -9.769531 8.207031 -9.425781 7.65625 -9.1875 C 8 -9.082031 8.300781 -8.894531 8.5625 -8.625 L 13.203125 -4.328125 C 14.023438 -4.347656 14.476562 -4.351562 14.5625 -4.34375 L 14.546875 -4.34375 C 14.796875 -4.320312 14.941406 -4.203125 14.984375 -3.984375 L 15.1875 -2.9375 L 14.75 -2.859375 L 13.484375 -2.609375 L 12.734375 -2.46875 C 12.316406 -2.382812 11.984375 -2.488281 11.734375 -2.78125 L 6.15625 -7.984375 C 6 -8.128906 5.832031 -8.238281 5.65625 -8.3125 C 5.5 -8.375 5.25 -8.375 4.90625 -8.3125 L 3.40625 -8.015625 L 4.4375 -2.671875 C 5.226562 -2.660156 5.691406 -2.65625 5.828125 -2.65625 C 5.929688 -2.644531 6.023438 -2.609375 6.109375 -2.546875 C 6.191406 -2.484375 6.242188 -2.398438 6.265625 -2.296875 L 6.46875 -1.28125 L 4.78125 -0.953125 L 2.484375 -0.515625 Z M 3.046875 -9.6875 L 5.234375 -10.109375 L 5.203125 -10.109375 C 5.898438 -10.242188 6.476562 -10.429688 6.9375 -10.671875 C 7.375 -10.898438 7.753906 -11.21875 8.078125 -11.625 C 8.367188 -12.007812 8.5625 -12.40625 8.65625 -12.8125 C 8.75 -13.238281 8.75 -13.71875 8.65625 -14.25 C 8.457031 -15.226562 7.976562 -15.914062 7.21875 -16.3125 C 6.46875 -16.695312 5.429688 -16.757812 4.109375 -16.5 L 1.8125 -16.0625 Z M 3.046875 -9.6875 "/></g></g></g><g fill="#000000" fill-opacity="1"><g transform="translate(221.810637, 309.024483)"><g><path d="M 0.578125 -0.953125 L -0.765625 -5.078125 L 0.375 -5.4375 C 0.625 -5.519531 0.8125 -5.429688 0.9375 -5.171875 C 1.007812 -5.066406 1.171875 -4.710938 1.421875 -4.109375 L 1.8125 -3.109375 C 3.15625 -3.078125 4.160156 -3.171875 4.828125 -3.390625 C 5.472656 -3.597656 6.015625 -3.859375 6.453125 -4.171875 C 6.835938 -4.453125 7.117188 -4.773438 7.296875 -5.140625 C 7.703125 -5.859375 7.757812 -6.679688 7.46875 -7.609375 C 7.175781 -8.484375 6.546875 -9.015625 5.578125 -9.203125 C 5.097656 -9.304688 4.628906 -9.351562 4.171875 -9.34375 C 2.398438 -9.332031 1.332031 -9.34375 0.96875 -9.375 C 0.46875 -9.425781 -0.046875 -9.566406 -0.578125 -9.796875 C -1.617188 -10.265625 -2.351562 -11.15625 -2.78125 -12.46875 C -3.175781 -13.675781 -3.078125 -14.859375 -2.484375 -16.015625 C -1.847656 -17.234375 -0.773438 -18.085938 0.734375 -18.578125 C 2.304688 -19.085938 3.9375 -19.28125 5.625 -19.15625 L 6.859375 -15.375 L 5.765625 -15.015625 C 5.492188 -14.921875 5.289062 -15.003906 5.15625 -15.265625 C 5.15625 -15.265625 5.125 -15.332031 5.0625 -15.46875 C 5 -15.613281 4.898438 -15.851562 4.765625 -16.1875 C 4.628906 -16.519531 4.484375 -16.875 4.328125 -17.25 C 3.191406 -17.1875 2.238281 -17.03125 1.46875 -16.78125 C 0.476562 -16.457031 -0.195312 -15.96875 -0.5625 -15.3125 C -0.9375 -14.675781 -1 -13.988281 -0.75 -13.25 C -0.488281 -12.4375 0.125 -11.929688 1.09375 -11.734375 C 1.550781 -11.617188 2.046875 -11.566406 2.578125 -11.578125 C 4.054688 -11.566406 5.132812 -11.53125 5.8125 -11.46875 L 5.765625 -11.453125 C 7.648438 -11.253906 8.867188 -10.296875 9.421875 -8.578125 C 9.910156 -7.066406 9.835938 -5.6875 9.203125 -4.4375 C 8.523438 -3.125 7.328125 -2.1875 5.609375 -1.625 C 4.890625 -1.394531 4.113281 -1.222656 3.28125 -1.109375 C 2.707031 -1.003906 2.050781 -0.945312 1.3125 -0.9375 Z M 0.578125 -0.953125 "/></g></g></g><g fill="#000000" fill-opacity="1"><g transform="translate(235.761189, 304.54834)"><g><path d="M 0.53125 -0.25 L 0.109375 -1.125 C 0.0234375 -1.300781 0.0664062 -1.460938 0.234375 -1.609375 L 0.984375 -2.296875 L -0.09375 -19.078125 L 2.03125 -20.09375 L 14.390625 -8.703125 L 15.375 -8.84375 C 15.59375 -8.882812 15.742188 -8.816406 15.828125 -8.640625 L 16.25 -7.765625 L 11.78125 -5.625 L 11.359375 -6.5 C 11.273438 -6.6875 11.320312 -6.851562 11.5 -7 L 12.28125 -7.6875 L 9.5625 -10.234375 L 2.84375 -7.015625 L 3.125 -3.3125 L 4.109375 -3.46875 C 4.335938 -3.519531 4.492188 -3.453125 4.578125 -3.265625 L 5 -2.390625 Z M 2.6875 -8.8125 L 8.25 -11.46875 L 3.078125 -16.375 C 2.703125 -16.695312 2.3125 -17.109375 1.90625 -17.609375 C 2.050781 -16.859375 2.144531 -16.296875 2.1875 -15.921875 Z M 2.6875 -8.8125 "/></g></g></g><g fill="#000000" fill-opacity="1"><g transform="translate(254.813613, 295.222749)"><g><path d="M 0.703125 -0.4375 L 0.109375 -1.3125 C -0.0234375 -1.5 -0.015625 -1.6875 0.140625 -1.875 L 1.109375 -2.859375 L -6.671875 -14.1875 C -7.390625 -13.863281 -7.816406 -13.679688 -7.953125 -13.640625 C -8.171875 -13.546875 -8.351562 -13.609375 -8.5 -13.828125 L -9.09375 -14.671875 L -6.6875 -16.328125 C -6.507812 -16.453125 -6.367188 -16.519531 -6.265625 -16.53125 C -6.179688 -16.550781 -6.023438 -16.539062 -5.796875 -16.5 L 9.796875 -11.421875 L 9.828125 -11.390625 C 9.660156 -11.554688 9.414062 -11.875 9.09375 -12.34375 L 3.171875 -20.96875 C 2.921875 -20.84375 2.6875 -20.726562 2.46875 -20.625 C 2.25 -20.519531 2.070312 -20.4375 1.9375 -20.375 C 1.800781 -20.320312 1.726562 -20.296875 1.71875 -20.296875 C 1.476562 -20.191406 1.289062 -20.238281 1.15625 -20.4375 L 0.546875 -21.3125 L 2.15625 -22.421875 L 3.84375 -23.578125 L 5.296875 -24.578125 L 5.90625 -23.703125 C 6.039062 -23.503906 6.019531 -23.3125 5.84375 -23.125 L 4.859375 -22.125 L 13.640625 -9.34375 L 12.6875 -8.6875 C 12.40625 -8.5 12.097656 -8.460938 11.765625 -8.578125 L -3.84375 -13.625 C -3.664062 -13.414062 -3.445312 -13.113281 -3.1875 -12.71875 L 2.796875 -4.03125 C 3.253906 -4.257812 3.753906 -4.492188 4.296875 -4.734375 C 4.503906 -4.804688 4.675781 -4.75 4.8125 -4.5625 L 5.40625 -3.6875 Z M 0.703125 -0.4375 "/></g></g></g><g fill="#000000" fill-opacity="1"><g transform="translate(272.216163, 282.965639)"><g><path d="M 0.609375 -0.5625 L -0.09375 -1.296875 C -0.269531 -1.484375 -0.285156 -1.679688 -0.140625 -1.890625 L 0.65625 -3.015625 L -8.796875 -13.015625 C -9.421875 -12.597656 -9.8125 -12.359375 -9.96875 -12.296875 C -10.164062 -12.148438 -10.359375 -12.171875 -10.546875 -12.359375 L -11.234375 -13.09375 L -5.453125 -18.578125 C -3.578125 -20.335938 -1.550781 -21.175781 0.625 -21.09375 C 2.875 -21 4.882812 -20.015625 6.65625 -18.140625 C 7.539062 -17.203125 8.203125 -16.203125 8.640625 -15.140625 C 9.046875 -14.128906 9.242188 -13.078125 9.234375 -11.984375 C 9.191406 -9.765625 8.242188 -7.785156 6.390625 -6.046875 Z M 2.296875 -4.734375 L 5.109375 -7.40625 C 6.472656 -8.6875 7.140625 -10.132812 7.109375 -11.75 C 7.085938 -13.382812 6.351562 -14.96875 4.90625 -16.5 C 4.15625 -17.289062 3.394531 -17.875 2.625 -18.25 C 1.800781 -18.6875 1.019531 -18.925781 0.28125 -18.96875 C -1.3125 -19.101562 -2.796875 -18.519531 -4.171875 -17.21875 L -6.984375 -14.546875 Z M 2.296875 -4.734375 "/></g></g></g><g fill="#000000" fill-opacity="1"><g transform="translate(286.848373, 268.762043)"><g><path d="M -10.1875 -8.8125 L -13.15625 -11.171875 L -5.046875 -21.34375 L -4.53125 -21.984375 L -4.296875 -22.265625 L -1.328125 -19.90625 L -2.0625 -19 C -2.21875 -18.789062 -2.375 -18.71875 -2.53125 -18.78125 C -2.78125 -18.882812 -3.238281 -19.148438 -3.90625 -19.578125 L -6.4375 -16.421875 L 4.140625 -7.984375 C 4.179688 -8.023438 4.253906 -8.085938 4.359375 -8.171875 C 4.953125 -8.679688 5.257812 -8.945312 5.28125 -8.96875 C 5.425781 -9.0625 5.59375 -9.035156 5.78125 -8.890625 L 6.578125 -8.25 L 2.9375 -3.6875 L 2.140625 -4.328125 C 1.929688 -4.492188 1.890625 -4.695312 2.015625 -4.9375 C 2.054688 -5.007812 2.144531 -5.179688 2.28125 -5.453125 C 2.414062 -5.722656 2.535156 -5.953125 2.640625 -6.140625 L -7.9375 -14.578125 L -10.46875 -11.40625 C -9.851562 -10.800781 -9.476562 -10.410156 -9.34375 -10.234375 C -9.25 -10.097656 -9.289062 -9.921875 -9.46875 -9.703125 Z M -10.1875 -8.8125 "/></g></g></g><g fill="#000000" fill-opacity="1"><g transform="translate(297.728765, 254.909807)"><g><path d="M 0.375 -0.703125 L -0.5 -1.234375 C -0.695312 -1.347656 -0.757812 -1.519531 -0.6875 -1.75 L -0.21875 -3.109375 L -12 -10.15625 C -12.539062 -9.5625 -12.859375 -9.207031 -12.953125 -9.09375 C -13.128906 -8.925781 -13.320312 -8.90625 -13.53125 -9.03125 L -14.4375 -9.5625 L -11.15625 -15.03125 C -10.601562 -15.945312 -10.023438 -16.707031 -9.421875 -17.3125 C -8.816406 -17.882812 -8.203125 -18.285156 -7.578125 -18.515625 C -6.921875 -18.742188 -6.285156 -18.8125 -5.671875 -18.71875 C -5.046875 -18.625 -4.414062 -18.382812 -3.78125 -18 C -3.28125 -17.707031 -2.847656 -17.335938 -2.484375 -16.890625 C -2.128906 -16.453125 -1.851562 -15.960938 -1.65625 -15.421875 C -1.46875 -14.890625 -1.382812 -14.328125 -1.40625 -13.734375 C -1.4375 -13.035156 -1.539062 -12.40625 -1.71875 -11.84375 C -1.425781 -12.019531 -1.09375 -12.117188 -0.71875 -12.140625 L 5.59375 -12.71875 C 6.132812 -13.351562 6.429688 -13.695312 6.484375 -13.75 L 6.484375 -13.734375 C 6.648438 -13.898438 6.832031 -13.925781 7.03125 -13.8125 L 7.9375 -13.265625 L 7.71875 -12.890625 L 7.046875 -11.78125 L 6.65625 -11.125 C 6.4375 -10.757812 6.140625 -10.582031 5.765625 -10.59375 L -1.828125 -9.90625 C -2.046875 -9.894531 -2.242188 -9.84375 -2.421875 -9.75 C -2.554688 -9.675781 -2.710938 -9.492188 -2.890625 -9.203125 L -3.6875 -7.890625 L 0.96875 -5.109375 C 1.5 -5.679688 1.8125 -6.015625 1.90625 -6.109375 C 1.988281 -6.179688 2.082031 -6.226562 2.1875 -6.25 C 2.289062 -6.269531 2.390625 -6.253906 2.484375 -6.203125 L 3.359375 -5.671875 L 2.46875 -4.203125 L 1.265625 -2.1875 Z M -5.171875 -8.734375 L -4.03125 -10.640625 L -4.046875 -10.609375 C -3.679688 -11.210938 -3.4375 -11.773438 -3.3125 -12.296875 C -3.195312 -12.765625 -3.179688 -13.257812 -3.265625 -13.78125 C -3.359375 -14.25 -3.53125 -14.65625 -3.78125 -15 C -4.03125 -15.363281 -4.382812 -15.679688 -4.84375 -15.953125 C -5.695312 -16.460938 -6.523438 -16.5625 -7.328125 -16.25 C -8.117188 -15.957031 -8.859375 -15.234375 -9.546875 -14.078125 L -10.75 -12.078125 Z M -5.171875 -8.734375 "/></g></g></g><g fill="#000000" fill-opacity="1"><g transform="translate(307.233436, 238.838813)"><g><path d="M 0.234375 -0.546875 L -0.65625 -0.921875 C -0.84375 -0.992188 -0.921875 -1.144531 -0.890625 -1.375 L -0.796875 -2.359375 L -12.828125 -14.109375 L -11.921875 -16.296875 L 4.875 -16.09375 L 5.515625 -16.875 C 5.648438 -17.039062 5.8125 -17.085938 6 -17.015625 L 6.890625 -16.640625 L 5 -12.078125 L 4.109375 -12.453125 C 3.910156 -12.523438 3.832031 -12.675781 3.875 -12.90625 L 3.984375 -13.921875 L 0.265625 -14 L -2.578125 -7.125 L 0.109375 -4.53125 L 0.75 -5.34375 C 0.875 -5.519531 1.035156 -5.570312 1.234375 -5.5 L 2.125 -5.125 Z M -3.890625 -8.359375 L -1.546875 -14.046875 L -8.6875 -14.21875 C -9.15625 -14.226562 -9.710938 -14.273438 -10.359375 -14.359375 C -9.742188 -13.890625 -9.300781 -13.53125 -9.03125 -13.28125 Z M -3.890625 -8.359375 "/></g></g></g><g fill="#000000" fill-opacity="1"><g transform="translate(315.156869, 219.15926)"><g><path d="M -15.640625 -4.1875 L -16.671875 -4.4375 L -15.34375 -10.015625 L -14.3125 -9.765625 C -14.050781 -9.703125 -13.9375 -9.507812 -13.96875 -9.1875 C -13.976562 -9.082031 -13.984375 -8.890625 -13.984375 -8.609375 C -13.992188 -8.328125 -14.003906 -8.09375 -14.015625 -7.90625 L -2.3125 -9.640625 C -1.84375 -9.722656 -1.191406 -9.765625 -0.359375 -9.765625 C -1.171875 -10.179688 -1.75 -10.503906 -2.09375 -10.734375 L -11.734375 -17.5625 C -12.046875 -16.832031 -12.242188 -16.40625 -12.328125 -16.28125 C -12.421875 -16.050781 -12.59375 -15.96875 -12.84375 -16.03125 L -13.84375 -16.265625 L -12.484375 -21.8125 L -11.484375 -21.578125 C -11.242188 -21.523438 -11.125 -21.378906 -11.125 -21.140625 L -11.140625 -19.90625 L 2.46875 -10.140625 L 1.984375 -8.09375 L -14.578125 -5.5625 C -14.867188 -4.9375 -15.050781 -4.566406 -15.125 -4.453125 C -15.226562 -4.222656 -15.398438 -4.132812 -15.640625 -4.1875 Z M -15.640625 -4.1875 "/></g></g></g><g fill="#000000" fill-opacity="1"><g transform="translate(319.772777, 198.410353)"><g><path d="M 0.078125 -0.828125 L -0.9375 -0.921875 C -1.195312 -0.953125 -1.335938 -1.082031 -1.359375 -1.3125 L -1.5 -2.703125 L -15.203125 -4 C -15.398438 -3.25 -15.53125 -2.804688 -15.59375 -2.671875 C -15.65625 -2.441406 -15.816406 -2.335938 -16.078125 -2.359375 L -17.09375 -2.453125 L -15.921875 -14.765625 L -11.765625 -14.375 L -11.875 -13.234375 C -11.90625 -12.941406 -12.0625 -12.789062 -12.34375 -12.78125 C -12.351562 -12.78125 -12.425781 -12.773438 -12.5625 -12.765625 C -12.707031 -12.765625 -12.9375 -12.765625 -13.25 -12.765625 C -13.5625 -12.765625 -13.882812 -12.769531 -14.21875 -12.78125 L -14.828125 -6.359375 L -9.09375 -5.8125 L -8.5 -12.125 L -6.6875 -11.953125 L -7.28125 -5.640625 L -1.390625 -5.078125 L -0.78125 -11.5 C -1.832031 -11.695312 -2.40625 -11.800781 -2.5 -11.8125 C -2.757812 -11.875 -2.875 -12.0625 -2.84375 -12.375 L -2.734375 -13.515625 L 1.25 -13.140625 Z M 0.078125 -0.828125 "/></g></g></g><g fill="#000000" fill-opacity="1"><g transform="translate(321.180454, 181.953866)"><g><path d="M -0.015625 -0.828125 L -1.046875 -0.796875 C -1.160156 -0.796875 -1.257812 -0.828125 -1.34375 -0.890625 C -1.4375 -0.960938 -1.5 -1.046875 -1.53125 -1.140625 L -1.828125 -2.5 L -15.578125 -2.140625 C -15.703125 -1.367188 -15.78125 -0.910156 -15.8125 -0.765625 C -15.832031 -0.671875 -15.882812 -0.585938 -15.96875 -0.515625 C -16.050781 -0.441406 -16.144531 -0.40625 -16.25 -0.40625 L -17.265625 -0.390625 L -17.3125 -2.109375 L -17.375 -4.4375 L -17.421875 -6.15625 L -16.40625 -6.171875 C -16.300781 -6.171875 -16.203125 -6.140625 -16.109375 -6.078125 C -16.023438 -6.015625 -15.96875 -5.929688 -15.9375 -5.828125 C -15.90625 -5.734375 -15.847656 -5.488281 -15.765625 -5.09375 C -15.679688 -4.695312 -15.640625 -4.488281 -15.640625 -4.46875 L -2.09375 -4.828125 L -2.25 -11.03125 C -3.007812 -11.070312 -3.476562 -11.101562 -3.65625 -11.125 C -3.769531 -11.15625 -3.863281 -11.21875 -3.9375 -11.3125 C -4.007812 -11.40625 -4.046875 -11.515625 -4.046875 -11.640625 L -4.078125 -12.828125 L -0.328125 -12.921875 L -0.3125 -12.34375 L -0.3125 -12.140625 L -0.0625 -2.546875 Z M -0.015625 -0.828125 "/></g></g></g><g fill="#000000" fill-opacity="1"><g transform="translate(320.593838, 165.91078)"><g><path d="M -0.828125 -0.734375 L -5.125 -0.125 L -5.296875 -1.3125 C -5.335938 -1.570312 -5.21875 -1.742188 -4.9375 -1.828125 C -4.820312 -1.878906 -4.441406 -1.972656 -3.796875 -2.109375 L -2.765625 -2.328125 C -2.492188 -3.640625 -2.40625 -4.648438 -2.5 -5.359375 C -2.59375 -6.023438 -2.753906 -6.597656 -2.984375 -7.078125 C -3.203125 -7.503906 -3.46875 -7.84375 -3.78125 -8.09375 C -4.425781 -8.613281 -5.226562 -8.804688 -6.1875 -8.671875 C -7.101562 -8.546875 -7.738281 -8.019531 -8.09375 -7.09375 C -8.269531 -6.625 -8.398438 -6.171875 -8.484375 -5.734375 C -8.773438 -3.984375 -8.972656 -2.9375 -9.078125 -2.59375 C -9.210938 -2.101562 -9.4375 -1.617188 -9.75 -1.140625 C -10.382812 -0.191406 -11.390625 0.378906 -12.765625 0.578125 C -14.023438 0.753906 -15.171875 0.453125 -16.203125 -0.328125 C -17.296875 -1.171875 -17.953125 -2.378906 -18.171875 -3.953125 C -18.398438 -5.597656 -18.304688 -7.238281 -17.890625 -8.875 L -13.9375 -9.421875 L -13.78125 -8.296875 C -13.738281 -8.003906 -13.851562 -7.816406 -14.125 -7.734375 C -14.125 -7.734375 -14.203125 -7.710938 -14.359375 -7.671875 C -14.515625 -7.640625 -14.765625 -7.585938 -15.109375 -7.515625 C -15.453125 -7.441406 -15.828125 -7.363281 -16.234375 -7.28125 C -16.367188 -6.144531 -16.378906 -5.179688 -16.265625 -4.390625 C -16.128906 -3.359375 -15.765625 -2.597656 -15.171875 -2.109375 C -14.609375 -1.640625 -13.941406 -1.457031 -13.171875 -1.5625 C -12.328125 -1.6875 -11.722656 -2.207031 -11.359375 -3.125 C -11.179688 -3.5625 -11.046875 -4.039062 -10.953125 -4.5625 C -10.679688 -6.007812 -10.457031 -7.054688 -10.28125 -7.703125 L -10.28125 -7.65625 C -9.757812 -9.476562 -8.601562 -10.519531 -6.8125 -10.78125 C -5.238281 -11 -3.890625 -10.6875 -2.765625 -9.84375 C -1.585938 -8.945312 -0.875 -7.597656 -0.625 -5.796875 C -0.519531 -5.054688 -0.484375 -4.269531 -0.515625 -3.4375 C -0.523438 -2.832031 -0.585938 -2.175781 -0.703125 -1.46875 Z M -0.828125 -0.734375 "/></g></g></g></svg>